<svg id="_x33_0" enable-background="new 0 0 64 64" height="512" viewBox="0 0 64 64" width="512" xmlns="http://www.w3.org/2000/svg" xmlns:xlink="http://www.w3.org/1999/xlink"><linearGradient id="SVGID_1_" gradientUnits="userSpaceOnUse" x1="32" x2="32" y1="63" y2="1"><stop offset="0" stop-color="#9f2fff"/><stop offset="1" stop-color="#0bb1d3"/></linearGradient><path d="m44 19h2c2.206 0 4-1.794 4-4 0-1.193-.525-2.267-1.357-3 .832-.733 1.357-1.807 1.357-3 0-2.206-1.794-4-4-4h-2c-1.103 0-2 .897-2 2v10c0 1.103.897 2 2 2zm0-12h2c1.103 0 2 .897 2 2s-.897 2-2 2h-2zm0 6h2c1.103 0 2 .897 2 2s-.897 2-2 2h-2zm-28 2h4v4h2v-10c0-2.206-1.794-4-4-4s-4 1.794-4 4v10h2zm2-8c1.103 0 2 .897 2 2v4h-4v-4c0-1.103.897-2 2-2zm41 0h-3.214c-1.825-3.556-5.522-6-9.786-6s-7.961 2.444-9.786 6h-8.429c-1.824-3.556-5.521-6-9.785-6s-7.961 2.444-9.786 6h-3.214c-2.206 0-4 1.794-4 4v38c0 2.206 1.794 4 4 4h15.812c-.554 1.611-2.227 3.242-3.158 4h-2.654c-1.103 0-2 .897-2 2v2c0 1.103.897 2 2 2h34c1.103 0 2-.897 2-2v-2c0-1.103-.897-2-2-2h-2.654c-.932-.758-2.604-2.389-3.158-4h15.812c2.206 0 4-1.794 4-4v-38c0-2.206-1.794-4-4-4zm-2 6v26h-22v-26h.051c.178 1.962.874 3.775 1.949 5.305v8.695h18v-8.695c1.075-1.53 1.771-3.342 1.949-5.305zm-18 7.479c1.903 1.574 4.343 2.521 7 2.521s5.097-.947 7-2.521v4.521h-14zm7-17.479c4.962 0 9 4.038 9 9s-4.038 9-9 9-9-4.038-9-9 4.038-9 9-9zm-17 10v26h-22v-26h.051c.178 1.962.874 3.775 1.949 5.305v8.695h18v-8.695c1.075-1.53 1.771-3.342 1.949-5.305zm-18 7.479c1.903 1.574 4.343 2.521 7 2.521s5.097-.947 7-2.521v4.521h-14zm7-17.479c4.962 0 9 4.038 9 9s-4.038 9-9 9-9-4.038-9-9 4.038-9 9-9zm-13 6h2.426c-.183.645-.313 1.313-.376 2h-.05c-1.103 0-2 .897-2 2v26c0 1.103.897 2 2 2h22c1.103 0 2-.897 2-2v-26c0-1.103-.897-2-2-2h-.051c-.062-.688-.192-1.355-.376-2h6.853c-.183.645-.313 1.313-.376 2h-.05c-1.103 0-2 .897-2 2v26c0 1.103.897 2 2 2h22c1.103 0 2-.897 2-2v-26c0-1.103-.897-2-2-2h-.051c-.062-.688-.192-1.355-.376-2h2.427c1.103 0 2 .897 2 2v32h-58v-32c0-1.103.897-2 2-2zm44.001 52h-34.001v-2h34zm-5.571-4h-22.86c.968-1.049 1.981-2.463 2.311-4h18.238c.33 1.537 1.343 2.951 2.311 4zm15.57-6h-54c-1.103 0-2-.897-2-2v-4h58v4c0 1.103-.897 2-2 2zm-50-14h8v-8h-8zm2-6h4v4h-4zm10 0h-2v-2h2zm2-2h4v2h-4zm-4 4h8v2h-8zm18 4h8v-8h-8zm2-6h4v4h-4zm10 0h-2v-2h2zm2-2h4v2h-4zm-4 4h8v2h-8zm8 14h2v2h-2zm-4 0h2v2h-2zm-4 0h2v2h-2z" fill="url(#SVGID_1_)"/></svg>