<?xml version="1.0"?>
<svg xmlns="http://www.w3.org/2000/svg" height="512px" viewBox="-42 0 512 512" width="512px" class="hovered-paths"><g><g fill="#00e9cc"><path d="m214.496094 140.914062c86.339844 0 156.585937 70.246094 156.585937 156.589844h-156.585937zm0 0" data-original="#000000" class="hovered-path active-path" data-old_color="#000000" fill="#AB003C"/><path d="m173.6875 46.695312h81.617188v50.113282h-81.617188zm0 0" data-original="#000000" class="hovered-path active-path" data-old_color="#000000" fill="#AB003C"/><path d="m323.9375 162.734375c-18.410156-15.191406-39.320312-26.195313-62.152344-32.707031l4.113282-14.417969c24.828124 7.082031 47.566406 19.046875 67.578124 35.5625zm-71.429688-35.074219c-4.644531-1.046875-9.398437-1.910156-14.128906-2.566406l2.0625-14.851562c5.144532.714843 10.3125 1.65625 15.363282 2.792968zm-23.652343-3.621094c-4.742188-.390624-9.574219-.589843-14.359375-.589843v-14.992188c5.195312 0 10.441406.214844 15.59375.640625zm0 0" data-original="#000000" class="hovered-path active-path" data-old_color="#000000" fill="#AB003C"/></g><path d="m278.238281 0h-127.488281l-8.140625 8.140625v45.40625l8.140625 8.140625h127.488281l8.140625-8.140625v-45.40625zm-6.851562 46.695312h-16.082031v-19.210937h-14.992188v19.210937h-18.320312v-19.210937h-14.992188v19.210937h-18.488281v-19.210937h-14.992188v19.210937h-15.917969v-31.703124h113.789063v31.703124zm0 0" data-original="#000000" class="hovered-path active-path" data-old_color="#000000" fill="#AB003C"/><path d="m366.167969 145.832031c-40.515625-40.511719-94.378907-62.824219-151.671875-62.824219-57.292969 0-111.160156 22.3125-151.671875 62.824219-40.511719 40.515625-62.824219 94.378907-62.824219 151.671875 0 57.292969 22.3125 111.160156 62.824219 151.671875s94.378906 62.824219 151.671875 62.824219c57.292968 0 111.15625-22.3125 151.671875-62.824219 40.511719-40.511719 62.824219-94.378906 62.824219-151.671875 0-57.292968-22.3125-111.15625-62.824219-151.671875zm-151.671875 351.175781c-110.007813 0-199.507813-89.496093-199.507813-199.503906 0-110.007812 89.5-199.503906 199.507813-199.503906 110.003906 0 199.503906 89.496094 199.503906 199.503906 0 110.007813-89.496094 199.503906-199.503906 199.503906zm0 0" data-original="#000000" class="hovered-path active-path" data-old_color="#000000" fill="#AB003C"/><path d="m214.496094 133.421875c-90.476563 0-164.085938 73.605469-164.085938 164.082031 0 90.476563 73.609375 164.085938 164.085938 164.085938 90.476562 0 164.082031-73.609375 164.082031-164.085938 0-90.476562-73.605469-164.082031-164.082031-164.082031zm99.9375 53.542969-25.265625 25.265625 10.597656 10.601562 25.269531-25.269531c23.949219 26.460938 38.554688 61.527344 38.554688 99.941406 0 38.414063-14.609375 73.480469-38.554688 99.941406l-25.269531-25.269531-10.597656 10.601563 25.265625 25.265625c-24.726563 22.382812-56.972656 36.601562-92.445313 38.367187v-35.808594h-14.988281v35.808594c-35.472656-1.765625-67.714844-15.984375-92.445312-38.367187l25.265624-25.265625-10.597656-10.601563-25.269531 25.269531c-22.378906-24.730468-36.597656-56.976562-38.363281-92.445312h35.804687v-14.992188h-35.804687c1.765625-35.46875 15.984375-67.714843 38.363281-92.445312l25.269531 25.269531 10.597656-10.601562-25.265624-25.265625c26.460937-23.949219 61.523437-38.554688 99.941406-38.554688 38.414062 0 73.476562 14.605469 99.9375 38.554688zm0 0" data-original="#000000" class="hovered-path active-path" data-old_color="#000000" fill="#AB003C"/><path d="m351.09375 290.007812h-129.105469v-129.105468h-14.988281v144.097656h144.09375zm0 0" data-original="#000000" class="hovered-path active-path" data-old_color="#000000" fill="#AB003C"/></g> </svg>
