<svg height="512pt" viewBox="-17 0 512 512.00429" width="512pt" xmlns="http://www.w3.org/2000/svg"><path d="m42.667969 76.800781h290.132812c18.851563 0 34.132813 15.285157 34.132813 34.132813v358.402344c0 18.851562-15.28125 34.132812-34.132813 34.132812h-290.132812c-18.851563 0-34.132813-15.28125-34.132813-34.132812v-358.402344c0-18.847656 15.28125-34.132813 34.132813-34.132813zm0 0" fill="#a4c2f7"/><path d="m42.667969 76.800781h264.535156c18.851563 0 34.132813 15.285157 34.132813 34.132813v358.402344c0 18.851562-15.28125 34.132812-34.132813 34.132812h-264.535156c-18.851563 0-34.132813-15.28125-34.132813-34.132812v-358.402344c0-18.847656 15.28125-34.132813 34.132813-34.132813zm0 0" fill="#e3e7f2"/><path d="m271.363281 110.933594h52.90625c4.710938 0 8.53125 3.824218 8.53125 8.535156v341.332031c0 4.714844-3.820312 8.535157-8.53125 8.535157h-273.066406c-4.714844 0-8.535156-3.820313-8.535156-8.535157v-341.332031c0-4.710938 3.820312-8.535156 8.535156-8.535156zm0 0" fill="#e3e7f2"/><path d="m273.070312 93.867188c0 47.128906-38.207031 85.335937-85.335937 85.335937s-85.332031-38.207031-85.332031-85.335937c0-47.125 38.203125-85.332032 85.332031-85.332032s85.335937 38.207032 85.335937 85.332032zm0 0" fill="#e3e7f2"/><path d="m221.867188 76.800781h-17.066407v-17.066406c0-9.425781-7.640625-17.066406-17.066406-17.066406s-17.066406 7.640625-17.066406 17.066406v17.066406h-17.066407c-9.425781 0-17.066406 7.640625-17.066406 17.066407 0 9.425781 7.640625 17.066406 17.066406 17.066406h17.066407v17.070312c0 9.425782 7.640625 17.066406 17.066406 17.066406s17.066406-7.640624 17.066406-17.066406v-17.070312h17.066407c9.425781 0 17.066406-7.640625 17.066406-17.066406 0-9.425782-7.640625-17.066407-17.066406-17.066407zm0 0" fill="#a4c2f7"/><path d="m469.335938 221.867188v196.269531l-13.398438 38.65625c-6.425781-3.21875-13.554688-4.773438-20.734375-4.523438-1.109375 0-2.21875 0-3.328125.085938-3.203125.136719-6.378906.625-9.472656 1.449219-2.769532.625-5.441406 1.628906-7.9375 2.988281l-1.535156-4.4375-11.859376-34.21875v-196.269531zm0 0" fill="#a4c2f7"/><path d="m414.5 456.773438 14.40625 41.449218c.550781 3.042969 3.199219 5.257813 6.296875 5.257813 3.09375 0 5.746094-2.214844 6.296875-5.257813l14.402344-41.449218c-13.144532-6.007813-28.253906-6.007813-41.402344 0zm0 0" fill="#f3d55b"/><path d="m414.5 456.773438 14.40625 41.449218c.550781 3.042969 3.199219 5.257813 6.296875 5.257813 3.09375 0 5.746094-2.214844 6.296875-5.257813l14.402344-41.449218c-4.855469-2.636719-11.585938-21.570313-20.699219-21.570313s-15.847656 18.933594-20.703125 21.570313zm0 0" fill="#7fabfa"/><path d="m455.683594 119.46875h-40.960938c-8.429687 1.039062-14.492187 8.613281-13.652344 17.066406v51.199219h68.265626v-51.199219c.835937-8.453125-5.222657-16.027344-13.652344-17.066406zm0 0" fill="#f3d55b"/><path d="m469.335938 136.535156v51.199219h-68.265626v-51.199219c-.8125-8.445312 5.234376-16.003906 13.652344-17.066406h40.960938c8.414062 1.0625 14.460937 8.621094 13.652344 17.066406zm0 0" fill="#a4c2f7"/><path d="m401.070312 221.867188h68.265626v-34.132813h-68.265626zm0 0" fill="#f3d55b"/><path d="m401.070312 179.203125h68.265626v42.664063h-68.265626zm0 0" fill="#a4c2f7"/><path d="m469.335938 418.136719-13.398438 38.65625c-6.425781-3.21875-13.554688-4.773438-20.734375-4.523438-1.109375 0-2.21875 0-3.328125.085938-3.203125.136719-6.378906.625-9.472656 1.449219-2.769532.625-5.441406 1.628906-7.9375 2.988281l-1.535156-4.4375-11.859376-34.21875zm0 0" fill="#e3e7f2"/><path d="m443.734375 221.867188v196.269531l-11.859375 34.21875-1.535156 4.4375c-2.496094-1.359375-5.167969-2.363281-7.9375-2.988281-3.09375-.824219-6.273438-1.3125-9.472656-1.449219l-11.859376-34.21875v-196.269531zm0 0" fill="#e3e7f2"/><path d="m443.734375 136.535156v51.199219h-42.664063v-51.199219c-.8125-8.445312 5.234376-16.003906 13.652344-17.066406h15.359375c8.414063 1.0625 14.464844 8.621094 13.652344 17.066406zm0 0" fill="#e3e7f2"/><path d="m401.070312 179.203125h42.664063v42.664063h-42.664063zm0 0" fill="#d4e1f4"/><path d="m443.734375 418.136719-11.859375 34.21875-1.535156 4.4375c-2.496094-1.359375-5.167969-2.363281-7.9375-2.988281-3.09375-.824219-6.273438-1.3125-9.472656-1.449219l-11.859376-34.21875zm0 0" fill="#e3e7f2"/><path d="m200.535156 9.601562c-44.996094-7.222656-87.625 22.488282-96.425781 67.199219h25.597656c7.199219-35.027343 35.472657-61.851562 70.828125-67.199219zm0 0" fill="#fff"/><path d="m34.136719 469.335938v-358.402344c0-18.847656 15.28125-34.132813 34.132812-34.132813h-25.601562c-18.851563 0-34.132813 15.285157-34.132813 34.132813v358.402344c0 18.851562 15.28125 34.132812 34.132813 34.132812h25.601562c-18.851562 0-34.132812-15.28125-34.132812-34.132812zm0 0" fill="#fff"/><path d="m17.070312 110.933594v358.402344h-17.06640575v-358.402344zm0 0" fill="#fff"/><g fill="#428dff"><path d="m153.601562 119.46875h8.535157v8.535156c0 14.136719 11.460937 25.597656 25.597656 25.597656 14.140625 0 25.601563-11.460937 25.601563-25.597656v-8.535156h8.53125c14.140624 0 25.601562-11.460938 25.601562-25.601562 0-14.136719-11.460938-25.597657-25.601562-25.597657h-8.53125v-8.535156c0-14.136719-11.460938-25.597656-25.601563-25.597656-14.136719 0-25.597656 11.460937-25.597656 25.597656v8.535156h-8.535157c-14.136718 0-25.597656 11.460938-25.597656 25.597657 0 14.140624 11.460938 25.601562 25.597656 25.601562zm0-34.132812h17.066407c4.714843 0 8.535156-3.820313 8.535156-8.535157v-17.066406c0-4.710937 3.820313-8.53125 8.53125-8.53125 4.714844 0 8.535156 3.820313 8.535156 8.53125v17.066406c0 4.714844 3.820313 8.535157 8.53125 8.535157h17.066407c4.714843 0 8.535156 3.820312 8.535156 8.53125 0 4.714843-3.820313 8.535156-8.535156 8.535156h-17.066407c-4.710937 0-8.53125 3.820312-8.53125 8.53125v17.070312c0 4.710938-3.820312 8.53125-8.535156 8.53125-4.710937 0-8.53125-3.820312-8.53125-8.53125v-17.070312c0-4.710938-3.820313-8.53125-8.535156-8.53125h-17.066407c-4.710937 0-8.53125-3.820313-8.53125-8.535156 0-4.710938 3.820313-8.53125 8.53125-8.53125zm0 0"/><path d="m8.535156 187.734375c2.257813-.03125 4.421875-.914063 6.058594-2.472656 3.300781-3.367188 3.300781-8.753907 0-12.117188l-1.28125-1.023437c-.472656-.324219-.992188-.582032-1.535156-.769532-.484375-.246093-1-.417968-1.535156-.511718-.566407-.09375-1.132813-.152344-1.707032-.171875-2.257812.035156-4.421875.917969-6.058594 2.476562-.769531.816407-1.378906 1.769531-1.792968 2.816407-1.285156 3.179687-.5859378 6.824218 1.792968 9.300781.816407.769531 1.773438 1.378906 2.816407 1.792969 1.027343.433593 2.128906.667968 3.242187.679687zm0 0"/><path d="m332.800781 68.269531h-54.832031c-11.414062-40.386719-48.269531-68.269531-90.234375-68.269531s-78.820313 27.882812-90.230469 68.269531h-54.835937c-23.550781.027344-42.636719 19.113281-42.66406275 42.664063v34.136718c0 4.710938 3.82031275 8.53125 8.53124975 8.53125 4.714844 0 8.535156-3.820312 8.535156-8.53125v-34.136718c0-14.136719 11.460938-25.597656 25.597657-25.597656h51.636719c-.257813 2.816406-.4375 5.648437-.4375 8.53125 0 2.886718.179687 5.71875.4375 8.535156h-43.101563c-9.425781 0-17.066406 7.640625-17.066406 17.066406v341.332031c0 9.425781 7.640625 17.066407 17.066406 17.066407h273.066406c9.425781 0 17.066407-7.640626 17.066407-17.066407v-341.332031c0-9.425781-7.640626-17.066406-17.066407-17.066406h-43.101562c.253906-2.816406.433593-5.648438.433593-8.535156 0-2.882813-.179687-5.714844-.433593-8.53125h51.632812c14.140625 0 25.601563 11.460937 25.601563 25.597656v358.402344c0 14.136718-11.460938 25.597656-25.601563 25.597656h-290.132812c-14.136719 0-25.597657-11.460938-25.597657-25.597656v-256c0-4.714844-3.820312-8.535157-8.535156-8.535157-4.710937 0-8.53124975 3.820313-8.53124975 8.535157v256c.02734375 23.550781 19.11328175 42.636718 42.66406275 42.667968h290.132812c23.554688-.03125 42.640625-19.117187 42.667969-42.667968v-358.402344c-.027344-23.550782-19.113281-42.636719-42.667969-42.664063zm-145.066406-51.199219c42.417969 0 76.800781 34.382813 76.800781 76.796876 0 42.417968-34.382812 76.800781-76.800781 76.800781-42.414063 0-76.800781-34.382813-76.800781-76.800781.050781-42.394532 34.40625-76.75 76.800781-76.796876zm136.535156 102.398438v341.332031h-273.066406v-341.332031h46.300781c11.410156 40.382812 48.265625 68.269531 90.230469 68.269531s78.820313-27.886719 90.234375-68.269531zm0 0"/><path d="m85.335938 273.070312c4.710937 0 8.53125-3.820312 8.53125-8.535156 0-4.710937-3.820313-8.53125-8.53125-8.53125v-34.136718h42.667968c4.710938 0 8.53125-3.820313 8.53125-8.53125 0-4.714844-3.820312-8.535157-8.53125-8.535157h-42.667968c-9.425782 0-17.066407 7.640625-17.066407 17.066407v34.136718c0 9.425782 7.640625 17.066406 17.066407 17.066406zm0 0"/><path d="m164.636719 215.835938-36.632813 36.632812-11.035156-11.03125c-3.347656-3.234375-8.671875-3.1875-11.960938.101562-3.292968 3.292969-3.339843 8.613282-.105468 11.960938l17.066406 17.070312c3.332031 3.328126 8.734375 3.328126 12.066406 0l42.667969-42.667968c3.234375-3.347656 3.1875-8.671875-.105469-11.960938-3.292968-3.292968-8.613281-3.339844-11.960937-.105468zm0 0"/><path d="m290.136719 230.402344h8.53125c4.714843 0 8.535156-3.820313 8.535156-8.535156 0-4.710938-3.820313-8.53125-8.535156-8.53125h-8.53125c-4.714844 0-8.535157 3.820312-8.535157 8.53125 0 4.714843 3.820313 8.535156 8.535157 8.535156zm0 0"/><path d="m204.800781 221.867188c0 4.714843 3.820313 8.535156 8.535157 8.535156h42.667968c4.710938 0 8.53125-3.820313 8.53125-8.535156 0-4.710938-3.820312-8.53125-8.53125-8.53125h-42.667968c-4.714844 0-8.535157 3.820312-8.535157 8.53125zm0 0"/><path d="m204.800781 256.003906c0 4.710938 3.820313 8.53125 8.535157 8.53125h68.265624c4.714844 0 8.535157-3.820312 8.535157-8.53125 0-4.714844-3.820313-8.535156-8.535157-8.535156h-68.265624c-4.714844 0-8.535157 3.820312-8.535157 8.535156zm0 0"/><path d="m85.335938 358.402344c4.710937 0 8.53125-3.820313 8.53125-8.535156 0-4.710938-3.820313-8.53125-8.53125-8.53125v-34.132813h42.667968c4.710938 0 8.53125-3.820313 8.53125-8.535156 0-4.710938-3.820312-8.53125-8.53125-8.53125h-42.667968c-9.425782 0-17.066407 7.640625-17.066407 17.066406v34.132813c0 9.425781 7.640625 17.066406 17.066407 17.066406zm0 0"/><path d="m164.636719 301.167969-36.632813 36.632812-11.035156-11.03125c-3.347656-3.234375-8.671875-3.1875-11.960938.101563-3.292968 3.292968-3.339843 8.617187-.105468 11.964844l17.066406 17.066406c3.332031 3.332031 8.734375 3.332031 12.066406 0l42.667969-42.667969c3.234375-3.347656 3.1875-8.667969-.105469-11.960937-3.292968-3.292969-8.613281-3.339844-11.960937-.105469zm0 0"/><path d="m298.667969 298.667969h-8.53125c-4.714844 0-8.535157 3.820312-8.535157 8.535156 0 4.710937 3.820313 8.53125 8.535157 8.53125h8.53125c4.714843 0 8.535156-3.820313 8.535156-8.53125 0-4.714844-3.820313-8.535156-8.535156-8.535156zm0 0"/><path d="m213.335938 315.734375h42.667968c4.710938 0 8.53125-3.820313 8.53125-8.53125 0-4.714844-3.820312-8.535156-8.53125-8.535156h-42.667968c-4.714844 0-8.535157 3.820312-8.535157 8.535156 0 4.710937 3.820313 8.53125 8.535157 8.53125zm0 0"/><path d="m213.335938 349.867188h68.265624c4.714844 0 8.535157-3.820313 8.535157-8.53125 0-4.714844-3.820313-8.535157-8.535157-8.535157h-68.265624c-4.714844 0-8.535157 3.820313-8.535157 8.535157 0 4.710937 3.820313 8.53125 8.535157 8.53125zm0 0"/><path d="m85.335938 426.667969v-34.132813h42.667968c4.710938 0 8.53125-3.820312 8.53125-8.53125 0-4.714844-3.820312-8.535156-8.53125-8.535156h-42.667968c-9.425782 0-17.066407 7.640625-17.066407 17.066406v34.132813c0 9.425781 7.640625 17.066406 17.066407 17.066406 4.710937 0 8.53125-3.820313 8.53125-8.53125 0-4.714844-3.820313-8.535156-8.53125-8.535156zm0 0"/><path d="m164.636719 386.503906-36.632813 36.632813-11.035156-11.035157c-3.347656-3.234374-8.671875-3.1875-11.960938.105469-3.292968 3.289063-3.339843 8.613281-.105468 11.960938l17.066406 17.066406c3.332031 3.332031 8.734375 3.332031 12.066406 0l42.667969-42.664063c3.234375-3.351562 3.1875-8.671874-.105469-11.964843-3.292968-3.289063-8.613281-3.335938-11.960937-.101563zm0 0"/><path d="m298.667969 384.003906h-8.53125c-4.714844 0-8.535157 3.820313-8.535157 8.53125 0 4.714844 3.820313 8.535156 8.535157 8.535156h8.53125c4.714843 0 8.535156-3.820312 8.535156-8.535156 0-4.710937-3.820313-8.53125-8.535156-8.53125zm0 0"/><path d="m213.335938 401.070312h42.667968c4.710938 0 8.53125-3.820312 8.53125-8.535156 0-4.710937-3.820312-8.53125-8.53125-8.53125h-42.667968c-4.714844 0-8.535157 3.820313-8.535157 8.53125 0 4.714844 3.820313 8.535156 8.535157 8.535156zm0 0"/><path d="m281.601562 418.136719h-68.265624c-4.714844 0-8.535157 3.820312-8.535157 8.53125 0 4.714843 3.820313 8.535156 8.535157 8.535156h68.265624c4.714844 0 8.535157-3.820313 8.535157-8.535156 0-4.710938-3.820313-8.53125-8.535157-8.53125zm0 0"/><path d="m455.683594 110.933594h-40.960938c-13.15625 1.023437-23.042968 12.433594-22.1875 25.601562v281.601563c0 .953125.160156 1.898437.476563 2.796875l27.792969 79.976562c1.71875 6.519532 7.601562 11.070313 14.339843 11.09375 6.742188.023438 12.65625-4.484375 14.417969-10.992187l27.828125-80.085938c.316406-.894531.476563-1.839843.476563-2.789062v-281.601563c.859374-13.167968-9.03125-24.578125-22.183594-25.601562zm-4.976563 334.789062c-10.167969-2.648437-20.847656-2.648437-31.019531 0l-6.621094-19.054687h44.269532zm-41.105469-232.386718v-25.601563h51.199219v25.601563zm34.132813 196.265624v-110.933593c0-4.710938-3.820313-8.53125-8.53125-8.53125-4.714844 0-8.535156 3.820312-8.535156 8.53125v110.933593h-17.066407v-179.199218h17.066407v34.132812c0 4.714844 3.820312 8.535156 8.535156 8.535156 4.710937 0 8.53125-3.820312 8.53125-8.535156v-34.132812h17.066406v179.199218zm-29.011719-281.597656h40.960938c2.421875 0 5.117187 3.652344 5.117187 8.53125v34.132813h-51.199219v-34.132813c0-4.878906 2.695313-8.53125 5.121094-8.53125zm20.480469 362.332032-9.898437-28.484376c6.527343-1.394531 13.277343-1.394531 19.804687 0zm0 0"/></g></svg>