<?xml version="1.0"?>
<svg xmlns="http://www.w3.org/2000/svg" id="Layer_5" enable-background="new 0 0 64 64" height="512px" viewBox="0 0 64 64" width="512px" class=""><g><path d="m63 13.586-10.586-10.586h-32.14c-1.41-1.241-3.253-2-5.274-2-4.411 0-8 3.589-8 8 0 2.498 1.152 4.73 2.951 6.199-5.088.963-8.951 5.436-8.951 10.801v7c0 2.757 2.243 5 5 5v9.618l.553.276c.06.03.601.295 1.447.627v10.479c0 2.206 1.794 4 4 4 1.201 0 2.266-.542 3-1.382.734.84 1.799 1.382 3 1.382 1.474 0 2.75-.81 3.444-2h41.556zm-10-7.172 6.586 6.586h-6.586zm-44 2.586c0-3.309 2.691-6 6-6s6 2.691 6 6-2.691 6-6 6-6-2.691-6-6zm14 0h24v14h-18.426c-1.128-3.967-4.424-7.025-8.525-7.801 1.799-1.469 2.951-3.701 2.951-6.199zm-1 13v24.358c-1.189.516-4.116 1.642-7 1.642-.333 0-.668-.018-1-.046v-23.57l6.355-7.061c3.822 1.039 6.645 4.53 6.645 8.677v7c0 1.654-1.346 3-3 3v-14zm-10-5h5.955l-3.043 3.381-2.956-3.379c.015 0 .029-.002.044-.002zm-9 16v-7c0-4.128 2.796-7.606 6.591-8.663l3.973 4.541-1.564 1.738v24.032c-1.734-.375-3.231-.958-4-1.291v-24.357h-2v14c-1.654 0-3-1.346-3-3zm9 28c-1.103 0-2-.897-2-2v-9.795c1.18.347 2.565.651 4 .754v9.041c0 1.103-.897 2-2 2zm6 0c-1.103 0-2-.897-2-2v-9.041c1.435-.103 2.82-.407 4-.754v9.795c0 1.103-.897 2-2 2zm4-2v-10.479c.847-.331 1.388-.597 1.447-.627l.553-.276v-9.618c2.757 0 5-2.243 5-5v-7c0-.338-.021-.67-.051-1h20.051v-18h-26.263c-.184-.71-.46-1.381-.819-2h29.082v10h10v44z" data-original="#000000" class="active-path" data-old_color="#000000" fill="#007BFF"/><path d="m59 27h-2c0 .675-.057 1.341-.139 2h-13.722c-.082-.659-.139-1.325-.139-2h-2c0 4.781 1.862 9.276 5.243 12.657l2.343 2.343-2.343 2.343c-3.381 3.381-5.243 7.876-5.243 12.657h2c0-.675.057-1.341.139-2h13.722c.082.659.139 1.325.139 2h2c0-4.781-1.862-9.276-5.243-12.657l-2.343-2.343 2.343-2.343c3.381-3.381 5.243-7.876 5.243-12.657zm-12.459 10c-.514-.633-.963-1.305-1.369-2h9.655c-.406.695-.855 1.367-1.369 2zm9.935-6c-.176.681-.383 1.351-.647 2h-11.658c-.264-.649-.471-1.319-.647-2zm-3.017 16c.514.633.963 1.305 1.369 2h-9.655c.406-.695.855-1.367 1.369-2zm-9.935 6c.176-.681.383-1.351.647-2h11.658c.264.649.471 1.319.647 2zm8.062-8h-3.172l1.586-1.586zm-3.172-6h3.172l-1.586 1.586z" data-original="#000000" class="active-path" data-old_color="#000000" fill="#007BFF"/><path d="m31 27h8v2h-8z" data-original="#000000" class="active-path" data-old_color="#000000" fill="#007BFF"/><path d="m31 31h8v2h-8z" data-original="#000000" class="active-path" data-old_color="#000000" fill="#007BFF"/><path d="m31 35h8v2h-8z" data-original="#000000" class="active-path" data-old_color="#000000" fill="#007BFF"/><path d="m33 41c-4.411 0-8 3.589-8 8s3.589 8 8 8 8-3.589 8-8-3.589-8-8-8zm0 14c-3.309 0-6-2.691-6-6s2.691-6 6-6 6 2.691 6 6-2.691 6-6 6z" data-original="#000000" class="active-path" data-old_color="#000000" fill="#007BFF"/><path d="m43 11h2v2h-2z" data-original="#000000" class="active-path" data-old_color="#000000" fill="#007BFF"/><path d="m39 11h2v2h-2z" data-original="#000000" class="active-path" data-old_color="#000000" fill="#007BFF"/><path d="m35 11h2v2h-2z" data-original="#000000" class="active-path" data-old_color="#000000" fill="#007BFF"/></g> </svg>
