<svg height="512pt" viewBox="0 0 512 512.04764" width="512pt" xmlns="http://www.w3.org/2000/svg"><path d="m503.492188 102.445312v358.402344c-.21875 23.765625-19.652344 42.863282-43.417969 42.664063h-408.097657c-23.769531.199219-43.203124-18.898438-43.417968-42.664063v-358.402344c.214844-23.765624 19.648437-42.863281 43.417968-42.664062h408.097657c23.765625-.199219 43.199219 18.898438 43.417969 42.664062zm0 0" fill="#7facfa"/><path d="m477.890625 102.445312v358.402344c-.230469 23.777344-19.679687 42.875-43.460937 42.664063h-382.414063c-23.777344.210937-43.230469-18.886719-43.457031-42.664063v-358.402344c.226562-23.777343 19.679687-42.875 43.457031-42.664062h382.414063c23.78125-.210938 43.230468 18.886719 43.460937 42.664062zm0 0" fill="#a4c2f7"/><path d="m356.164062 93.914062h95.777344c9.511719-.070312 17.292969 7.554688 17.414063 17.066407v274.535156c-.011719 4.546875-1.855469 8.894531-5.117188 12.066406l-68.164062 66.796875c-3.289063 3.207032-7.703125 5.003906-12.296875 5h-323.671875c-9.511719.070313-17.292969-7.554687-17.414063-17.066406v-341.332031c.121094-9.511719 7.902344-17.136719 17.414063-17.066407zm0 0" fill="#f5f5f5"/><path d="m213.355469 51.246094c0-23.5625 19.105469-42.667969 42.667969-42.667969 23.566406 0 42.667968 19.105469 42.667968 42.667969h34.132813c9.414062.027344 17.039062 7.652344 17.066406 17.066406v34.132812c-.027344 9.414063-7.652344 17.039063-17.066406 17.066407h-153.601563c-9.414062-.027344-17.039062-7.652344-17.066406-17.066407v-34.132812c.027344-9.414062 7.652344-17.039062 17.066406-17.066406zm0 0" fill="#d4e1f4"/><path d="m384.023438 467.84375v-66.730469c0-4.710937 3.820312-8.535156 8.535156-8.535156h66.730468zm0 0" fill="#d4e1f4"/><path d="m247.492188 238.980469c0 42.414062-34.386719 76.800781-76.800782 76.800781-42.417968 0-76.800781-34.386719-76.800781-76.800781 0-42.417969 34.382813-76.800781 76.800781-76.800781 42.414063 0 76.800782 34.382812 76.800782 76.800781zm0 0" fill="#e3e7f2"/><path d="m221.890625 281.648438c-.003906 6.648437-1.835937 13.171874-5.289063 18.855468-27.21875 20.367188-64.601562 20.367188-91.820312 0-3.457031-5.683594-5.285156-12.207031-5.289062-18.855468 1.152343-19.375 14.894531-35.683594 33.789062-40.109376h34.816406c18.894532 4.425782 32.640625 20.734376 33.792969 40.109376zm0 0" fill="#e3e7f2"/><path d="m204.824219 204.847656c0-23.566406-15.28125-42.667968-34.132813-42.667968-18.851562 0-34.132812 19.101562-34.132812 42.667968 0 23.5625 15.28125 42.664063 34.132812 42.664063 18.851563 0 34.132813-19.101563 34.132813-42.664063zm0 0" fill="#d4e1f4"/><path d="m52.015625 503.511719 25.558594.003906c-23.765625.195313-43.203125-18.902344-43.417969-42.667969v-358.402344c.214844-23.765624 19.652344-42.863281 43.417969-42.667968l-25.597657.003906c-23.769531-.199219-43.203124 18.898438-43.417968 42.664062v358.402344c.214844 23.765625 19.648437 42.863282 43.417968 42.664063zm0 0" fill="#fff"/><path d="m17.089844 102.445312v358.402344h-17.0664065v-358.402344zm0 0" fill="#fff"/><g fill="#428dff"><path d="m8.558594 179.246094c2.257812-.03125 4.421875-.917969 6.058594-2.472656 3.296874-3.367188 3.296874-8.753907 0-12.117188l-1.28125-1.027344c-.476563-.320312-.992188-.578125-1.535157-.765625-.484375-.246093-1.003906-.417969-1.535156-.511719-.566406-.097656-1.136719-.152343-1.707031-.171874-2.261719.035156-4.425782.917968-6.058594 2.476562-.773438.8125-1.382812 1.769531-1.792969 2.8125-1.289062 3.183594-.585937 6.828125 1.792969 9.304688.8125.769531 1.769531 1.378906 2.816406 1.789062 1.023438.4375 2.125.671875 3.242188.683594zm0 0"/><path d="m460.054688 51.246094h-106.496094c-.519532.054687-1.035156.15625-1.535156.308594-4.816407-5.589844-11.820313-8.816407-19.199219-8.839844h-26.308594c-4.144531-24.65625-25.488281-42.714844-50.492187-42.714844-25 0-46.347657 18.058594-50.492188 42.714844h-26.308594c-7.238281.019531-14.128906 3.125-18.941406 8.53125h-108.289062c-28.476563-.179688-51.722657 22.726562-51.9687505 51.199218v34.132813c0 4.714844 3.8203125 8.535156 8.5351565 8.535156 4.710937 0 8.53125-3.820312 8.53125-8.535156v-34.132813c.234375-19.050781 15.847656-34.320312 34.902344-34.132812h101.632812v17.066406h-93.867188c-14.140624 0-25.601562 11.460938-25.601562 25.601563v341.332031c0 14.140625 11.460938 25.601562 25.601562 25.601562h322.5c6.875.027344 13.496094-2.621093 18.457032-7.382812l69.367187-66.796875c2.203125-2.164063 4-4.710937 5.300781-7.511719.066407-.152344.179688-.273437.238282-.433594 1.46875-3.214843 2.242187-6.707031 2.269531-10.242187v-274.566406c-.203125-14.3125-11.945313-25.761719-26.257813-25.601563h-93.210937v-17.066406h101.632813c19.054687-.1875 34.667968 15.082031 34.902343 34.132812v358.402344c-.234375 19.054688-15.847656 34.320313-34.902343 34.132813h-408.0625c-19.054688.1875-34.667969-15.078125-34.902344-34.132813v-256c0-4.714844-3.820313-8.535156-8.53125-8.535156-4.714844 0-8.5351565 3.820312-8.5351565 8.535156v256c.2460935 28.472656 23.4921875 51.378906 51.9687505 51.199219h408.0625c28.476562.179687 51.726562-22.726563 51.96875-51.199219v-358.402344c-.242188-28.472656-23.492188-51.378906-51.96875-51.199218zm-280.832032 8.535156h34.132813c4.714843 0 8.535156-3.820312 8.535156-8.535156 0-18.851563 15.28125-34.132813 34.132813-34.132813 18.851562 0 34.132812 15.28125 34.132812 34.132813 0 4.714844 3.820312 8.535156 8.535156 8.535156h34.132813c4.710937 0 8.53125 3.820312 8.53125 8.53125v34.132812c0 4.714844-3.820313 8.535157-8.53125 8.535157h-153.601563c-4.710937 0-8.53125-3.820313-8.53125-8.535157v-34.132812c0-4.710938 3.820313-8.53125 8.53125-8.53125zm213.335938 394.929688-.085938-53.171876c.324219-.296874.753906-.453124 1.195313-.425781h54.519531zm59.074218-352.265626c4.890626-.171874 9 3.644532 9.191407 8.535157v273.066406h-67.15625c-9.722657-.28125-17.847657 7.34375-18.175781 17.066406v59.734375h-315.734376c-4.714843 0-8.535156-3.820312-8.535156-8.535156v-341.332031c0-4.714844 3.820313-8.535157 8.535156-8.535157h93.867188c0 14.140626 11.460938 25.601563 25.597656 25.601563h153.601563c14.136719 0 25.597656-11.460937 25.597656-25.601563zm0 0"/><path d="m213.355469 93.914062h85.335937c4.710938 0 8.53125-3.820312 8.53125-8.535156 0-4.710937-3.820312-8.53125-8.53125-8.53125h-85.335937c-4.710938 0-8.53125 3.820313-8.53125 8.53125 0 4.714844 3.820312 8.535156 8.53125 8.535156zm0 0"/><path d="m281.625 162.179688c0 4.714843 3.820312 8.535156 8.53125 8.535156h136.535156c4.710938 0 8.53125-3.820313 8.53125-8.535156 0-4.710938-3.820312-8.53125-8.53125-8.53125h-136.535156c-4.710938 0-8.53125 3.820312-8.53125 8.53125zm0 0"/><path d="m426.691406 187.78125h-136.535156c-4.710938 0-8.53125 3.820312-8.53125 8.53125 0 4.714844 3.820312 8.535156 8.53125 8.535156h136.535156c4.710938 0 8.53125-3.820312 8.53125-8.535156 0-4.710938-3.820312-8.53125-8.53125-8.53125zm0 0"/><path d="m426.691406 221.914062h-136.535156c-4.710938 0-8.53125 3.820313-8.53125 8.53125 0 4.714844 3.820312 8.535157 8.53125 8.535157h136.535156c4.710938 0 8.53125-3.820313 8.53125-8.535157 0-4.710937-3.820312-8.53125-8.53125-8.53125zm0 0"/><path d="m426.691406 256.046875h-136.535156c-4.710938 0-8.53125 3.820313-8.53125 8.53125 0 4.714844 3.820312 8.535156 8.53125 8.535156h136.535156c4.710938 0 8.53125-3.820312 8.53125-8.535156 0-4.710937-3.820312-8.53125-8.53125-8.53125zm0 0"/><path d="m426.691406 290.179688h-136.535156c-4.710938 0-8.53125 3.820312-8.53125 8.535156 0 4.710937 3.820312 8.53125 8.53125 8.53125h136.535156c4.710938 0 8.53125-3.820313 8.53125-8.53125 0-4.714844-3.820312-8.535156-8.53125-8.535156zm0 0"/><path d="m426.691406 349.914062h-341.335937c-4.710938 0-8.53125 3.820313-8.53125 8.53125 0 4.714844 3.820312 8.535157 8.53125 8.535157h341.335937c4.710938 0 8.53125-3.820313 8.53125-8.535157 0-4.710937-3.820312-8.53125-8.53125-8.53125zm0 0"/><path d="m341.355469 384.046875h-256c-4.710938 0-8.53125 3.820313-8.53125 8.53125 0 4.714844 3.820312 8.535156 8.53125 8.535156h256c4.714843 0 8.535156-3.820312 8.535156-8.535156 0-4.710937-3.820313-8.53125-8.535156-8.53125zm0 0"/><path d="m341.355469 418.179688h-256c-4.710938 0-8.53125 3.820312-8.53125 8.535156 0 4.710937 3.820312 8.53125 8.53125 8.53125h256c4.714843 0 8.535156-3.820313 8.535156-8.53125 0-4.714844-3.820313-8.535156-8.535156-8.535156zm0 0"/><path d="m118.800781 306.5625c.5625.570312 1.207031 1.054688 1.910157 1.433594 29.769531 21.753906 70.191406 21.753906 99.960937 0 .703125-.378906 1.347656-.863282 1.910156-1.433594 29.03125-22.238281 40.664063-60.503906 28.925781-95.136719-11.742187-34.636719-44.246093-57.9375-80.816406-57.9375-36.570312 0-69.078125 23.300781-80.816406 57.9375-11.742188 34.632813-.109375 72.898438 28.925781 95.136719zm12.558594-11.886719c-2.164063-4.003906-3.3125-8.476562-3.335937-13.027343.96875-14.265626 10.625-26.457032 24.285156-30.671876 3.074218 1.808594 6.390625 3.164063 9.847656 4.039063v18.097656c0 4.710938 3.820312 8.535157 8.535156 8.535157 4.710938 0 8.53125-3.824219 8.53125-8.535157v-18.097656c3.457032-.875 6.773438-2.230469 9.847656-4.039063 13.664063 4.214844 23.316407 16.40625 24.285157 30.671876-.023438 4.550781-1.167969 9.023437-3.335938 13.027343-23.539062 16.761719-55.117187 16.761719-78.660156 0zm39.332031-123.960937c14.113282 0 25.597656 15.308594 25.597656 34.132812 0 18.824219-11.484374 34.132813-25.597656 34.132813-14.113281 0-25.601562-15.308594-25.601562-34.132813 0-18.824218 11.488281-34.132812 25.601562-34.132812zm68.265625 68.265625c-.015625 12.074219-3.257812 23.925781-9.386719 34.328125-3.320312-15.015625-13.1875-27.757813-26.898437-34.730469 7.039063-9.832031 10.78125-21.640625 10.683594-33.730469.015625-7.644531-1.453125-15.21875-4.316407-22.308594 18.703126 12.699219 29.90625 33.835938 29.917969 56.441407zm-106.617187-56.441407c-2.863282 7.089844-4.328125 14.664063-4.316406 22.308594-.105469 12.085938 3.625 23.894532 10.648437 33.730469-13.707031 6.972656-23.574219 19.714844-26.894531 34.730469-18.15625-30.945313-9.15625-70.671875 20.5625-90.769532zm0 0"/></g></svg>