<svg xmlns="http://www.w3.org/2000/svg" height="512pt" version="1.1" viewBox="-88 0 512 512.00097" width="512pt">
<g id="surface1">
<path d="M 85.394531 211.78125 L 85.492188 211.644531 L 85.335938 211.121094 L 85.136719 208.78125 L 84.738281 209.335938 C 84.589844 209.035156 84.402344 208.722656 84.144531 208.433594 C 82.816406 206.902344 80.746094 206.726562 78.925781 206.679688 C 77.832031 206.644531 76.40625 206.496094 74.753906 206.320312 L 74.519531 206.296875 C 72.144531 206.035156 68.898438 205.675781 65.894531 205.675781 C 61.328125 205.675781 58.359375 206.503906 56.554688 208.28125 L 56.265625 208.566406 L 56.0625 208.917969 C 55.5 209.890625 54.457031 211.695312 54.082031 229.804688 C 54.0625 230.628906 54.042969 231.367188 54.019531 231.992188 L 53.921875 235.113281 L 79.128906 234.910156 C 81.207031 234.894531 83.195312 234.773438 84.730469 233.457031 C 87.09375 231.4375 86.777344 227.890625 86.609375 225.992188 Z M 85.394531 211.78125 " style=" stroke:none;fill-rule:nonzero;fill:rgb(79.607843%,89.803922%,50.196078%);fill-opacity:1;" />
<path d="M 85.546875 333.65625 L 85.441406 332.453125 C 85.339844 331.253906 85.191406 329.617188 84.144531 328.445312 C 82.816406 326.914062 80.746094 326.734375 78.921875 326.691406 C 77.734375 326.652344 76.097656 326.472656 74.476562 326.292969 C 71.964844 326.019531 68.84375 325.683594 65.894531 325.683594 C 61.324219 325.683594 58.355469 326.511719 56.550781 328.296875 L 56.261719 328.578125 L 56.058594 328.929688 C 55.5 329.902344 54.457031 331.707031 54.078125 349.808594 C 54.058594 350.640625 54.039062 351.382812 54.019531 352.003906 L 53.921875 355.125 L 79.128906 354.921875 C 81.105469 354.90625 83.167969 354.785156 84.730469 353.46875 C 87.089844 351.449219 86.773438 347.894531 86.605469 345.992188 Z M 85.546875 333.65625 " style=" stroke:none;fill-rule:nonzero;fill:rgb(79.607843%,89.803922%,50.196078%);fill-opacity:1;" />
<path d="M 321.832031 66.296875 C 317.867188 64.023438 312.964844 63.777344 308.640625 63.5625 L 243.097656 60.246094 L 242.511719 62.664062 C 241.578125 66.519531 240.433594 70.328125 239.328125 74.007812 L 239.03125 74.996094 C 238.273438 77.523438 237.554688 79.910156 236.949219 82.222656 C 235.875 86.265625 234.769531 90.292969 233.652344 94.371094 L 232.8125 97.460938 C 232.300781 99.324219 231.789062 101.203125 231.28125 103.089844 L 230.285156 106.78125 L 304.488281 108.496094 L 303.9375 137.691406 L 329.554688 137.25 L 331.054688 94.546875 C 331.425781 84.078125 330.710938 71.40625 321.832031 66.296875 Z M 321.832031 66.296875 " style=" stroke:none;fill-rule:nonzero;fill:rgb(69.803922%,91.764706%,97.647059%);fill-opacity:1;" />
<path d="M 97.253906 61.753906 C 90.148438 62.402344 82.273438 62.707031 72.46875 62.707031 C 67.882812 62.707031 63.273438 62.644531 59.207031 62.589844 L 59.03125 62.589844 C 54.628906 62.527344 50.078125 62.464844 45.542969 62.464844 C 36.898438 62.464844 29.90625 62.703125 23.539062 63.210938 L 20.878906 63.425781 L 20.78125 66.09375 C 20.007812 87.152344 19.230469 108.441406 18.4375 129.820312 L 18.328125 132.835938 L 38.21875 133.453125 L 39.019531 105.972656 C 44.554688 105.601562 50.464844 105.433594 57.527344 105.433594 C 62.964844 105.433594 68.304688 105.53125 73.472656 105.632812 C 77.972656 105.714844 83.574219 105.816406 89.011719 105.816406 C 95.785156 105.816406 101.675781 105.65625 107.023438 105.324219 L 110.613281 105.101562 L 99.820312 61.519531 Z M 97.253906 61.753906 " style=" stroke:none;fill-rule:nonzero;fill:rgb(69.803922%,91.764706%,97.647059%);fill-opacity:1;" />
<path d="M 157.726562 36.070312 C 156.769531 38.265625 156.46875 40.675781 156.894531 42.941406 C 156.917969 43.066406 156.941406 43.175781 156.96875 43.277344 C 157.226562 44.382812 157.617188 45.351562 158.144531 46.222656 C 160.117188 49.507812 164.105469 51.46875 168.808594 51.46875 C 170.308594 51.46875 171.835938 51.261719 173.226562 50.867188 C 176.847656 49.839844 179.722656 47.828125 181.328125 45.203125 C 181.796875 44.433594 182.164062 43.589844 182.425781 42.679688 C 183.089844 40.316406 182.910156 37.675781 181.921875 35.421875 C 179.847656 30.746094 174.082031 28.300781 169.457031 28.300781 C 168.492188 28.300781 167.574219 28.398438 166.734375 28.597656 C 162.800781 29.503906 159.351562 32.367188 157.726562 36.070312 Z M 157.726562 36.070312 " style=" stroke:none;fill-rule:nonzero;fill:rgb(94.117647%,94.901961%,98.039216%);fill-opacity:1;" />
<path d="M 230.207031 107.113281 C 229.496094 109.800781 228.660156 112.984375 227.855469 116.214844 C 227.746094 116.664062 227.339844 116.980469 226.859375 116.980469 L 114.4375 117.25 C 113.964844 117.25 113.554688 116.933594 113.441406 116.46875 L 110.136719 103.152344 L 107.632812 103.316406 C 102.117188 103.679688 96.257812 103.847656 89.195312 103.847656 C 83.964844 103.847656 78.714844 103.753906 73.632812 103.664062 L 73.507812 103.660156 C 68.894531 103.570312 63.15625 103.460938 57.601562 103.460938 C 50.941406 103.460938 45.132812 103.617188 39.84375 103.945312 L 37.109375 104.113281 L 26.394531 471.007812 L 278.933594 486.34375 C 280.167969 486.417969 281.617188 486.496094 283.019531 486.496094 C 285.785156 486.496094 289.355469 486.246094 292.457031 484.289062 C 298.652344 480.386719 299.640625 472.429688 299.789062 464.414062 L 306.492188 106.570312 L 230.8125 104.824219 Z M 56.039062 229.847656 C 56.152344 224.816406 56.453125 211.457031 57.867188 209.761719 C 59.226562 208.351562 61.933594 207.636719 65.914062 207.636719 C 68.648438 207.636719 71.644531 207.964844 74.289062 208.253906 C 76.222656 208.464844 77.683594 208.617188 78.863281 208.648438 C 79.84375 208.675781 81.667969 208.726562 82.578125 209.660156 L 83.6875 210.804688 L 83.351562 211.273438 L 83.460938 212.394531 C 83.464844 212.511719 83.472656 212.621094 83.476562 212.648438 L 84.648438 226.164062 C 84.785156 227.714844 85.039062 230.605469 83.445312 231.964844 C 82.324219 232.921875 80.472656 232.933594 79.113281 232.941406 L 55.953125 233.132812 C 55.980469 232.425781 56.011719 231.324219 56.039062 229.847656 Z M 56.039062 269.859375 C 56.152344 264.824219 56.453125 251.457031 57.867188 249.765625 C 59.226562 248.355469 61.941406 247.640625 65.929688 247.640625 C 68.675781 247.640625 71.660156 247.964844 74.289062 248.253906 C 76.222656 248.464844 77.683594 248.617188 78.878906 248.648438 C 79.976562 248.6875 81.8125 248.746094 82.664062 249.726562 C 83.285156 250.445312 83.390625 251.660156 83.476562 252.65625 L 84.648438 266.160156 C 84.785156 267.714844 85.035156 270.609375 83.453125 271.964844 C 82.339844 272.910156 80.5625 272.933594 79.113281 272.949219 L 55.953125 273.132812 C 55.980469 272.425781 56.011719 271.328125 56.039062 269.859375 Z M 83.453125 391.976562 C 82.339844 392.921875 80.5625 392.945312 79.117188 392.960938 L 55.957031 393.140625 C 55.984375 392.4375 56.011719 391.339844 56.039062 389.867188 C 56.152344 384.835938 56.453125 371.464844 57.871094 369.769531 C 59.226562 368.359375 61.933594 367.644531 65.914062 367.644531 C 68.648438 367.644531 71.648438 367.972656 74.289062 368.261719 C 76.214844 368.472656 77.671875 368.628906 78.875 368.660156 C 79.972656 368.695312 81.8125 368.757812 82.664062 369.738281 C 83.285156 370.453125 83.390625 371.664062 83.480469 372.660156 L 84.648438 386.171875 C 84.785156 387.726562 85.039062 390.621094 83.453125 391.976562 Z M 83.445312 351.972656 C 82.328125 352.933594 80.546875 352.941406 79.113281 352.949219 L 55.953125 353.140625 C 55.980469 352.433594 56.011719 351.332031 56.039062 349.859375 C 56.152344 344.832031 56.453125 331.476562 57.867188 329.769531 C 59.246094 328.339844 61.875 327.644531 65.910156 327.644531 C 68.640625 327.644531 71.636719 327.972656 74.304688 328.265625 L 74.972656 328.332031 C 76.480469 328.492188 77.785156 328.628906 78.867188 328.660156 C 79.964844 328.6875 81.804688 328.738281 82.65625 329.71875 C 82.957031 330.066406 83.15625 330.53125 83.285156 331.179688 L 84.21875 335.835938 L 83.8125 336.492188 L 84.648438 346.171875 C 84.785156 347.726562 85.039062 350.617188 83.445312 351.972656 Z M 83.453125 311.964844 C 82.320312 312.929688 80.46875 312.941406 79.113281 312.949219 L 55.953125 313.140625 C 55.980469 312.4375 56.007812 311.339844 56.039062 309.859375 C 56.152344 304.824219 56.453125 291.457031 57.867188 289.765625 C 59.242188 288.335938 61.878906 287.644531 65.925781 287.644531 C 68.640625 287.644531 71.621094 287.964844 74.296875 288.253906 C 76.207031 288.464844 77.652344 288.613281 78.867188 288.660156 C 79.964844 288.6875 81.804688 288.738281 82.65625 289.71875 C 83.285156 290.445312 83.390625 291.660156 83.480469 292.65625 L 84.648438 306.171875 C 84.785156 307.726562 85.039062 310.617188 83.453125 311.964844 Z M 180.859375 194.570312 L 159 194.570312 L 159 177.890625 L 142.316406 177.890625 L 142.316406 156.03125 L 159 156.03125 L 159 139.339844 L 180.859375 139.339844 L 180.859375 156.03125 L 197.546875 156.03125 L 197.546875 177.890625 L 180.859375 177.890625 Z M 215.601562 440.328125 C 215.9375 439.40625 216.328125 438.492188 216.710938 437.578125 L 220.21875 429.277344 C 219.507812 433.214844 217.925781 437.007812 215.601562 440.328125 Z M 266.230469 219.558594 L 266.253906 219.03125 C 266.402344 215.402344 266.605469 210.429688 266.933594 209.648438 C 267.382812 208.929688 268.824219 208.070312 273.144531 208.070312 C 274.703125 208.070312 276.359375 208.179688 277.820312 208.273438 C 279.070312 208.355469 280.058594 208.410156 280.820312 208.410156 L 281.417969 208.402344 C 281.9375 208.402344 282.273438 208.464844 282.519531 208.605469 C 283.234375 209.015625 283.355469 210.449219 283.398438 210.9375 C 283.894531 216.484375 283.621094 222.050781 282.59375 227.488281 C 277.109375 226.339844 271.492188 225.746094 265.875 225.71875 C 266.007812 224.511719 266.109375 222.359375 266.230469 219.558594 Z M 266.230469 250.097656 L 266.253906 249.574219 C 266.402344 245.941406 266.605469 240.972656 266.933594 240.1875 C 267.382812 239.46875 268.824219 238.613281 273.144531 238.613281 C 274.703125 238.613281 276.359375 238.71875 277.820312 238.8125 C 279.070312 238.898438 280.058594 238.953125 280.820312 238.953125 L 281.417969 238.945312 C 281.9375 238.945312 282.273438 239.003906 282.519531 239.148438 C 283.234375 239.554688 283.355469 240.992188 283.398438 241.476562 C 283.894531 247.019531 283.625 252.582031 282.59375 258.019531 C 277.097656 256.878906 271.480469 256.285156 265.875 256.257812 C 266.007812 255.050781 266.109375 252.898438 266.230469 250.097656 Z M 266.230469 280.640625 L 266.253906 280.113281 C 266.402344 276.484375 266.605469 271.511719 266.933594 270.730469 C 267.382812 270.011719 268.824219 269.152344 273.144531 269.152344 C 274.703125 269.152344 276.359375 269.257812 277.820312 269.355469 C 279.070312 269.4375 280.058594 269.492188 280.820312 269.492188 L 281.367188 269.488281 C 281.785156 269.488281 282.214844 269.511719 282.511719 269.683594 C 282.59375 269.730469 282.660156 269.785156 282.734375 269.871094 L 283.917969 271.230469 L 283.398438 271.96875 L 283.476562 273.035156 C 283.851562 278.230469 283.554688 283.449219 282.589844 288.558594 C 277.097656 287.417969 271.480469 286.824219 265.875 286.796875 C 266.007812 285.589844 266.109375 283.4375 266.230469 280.640625 Z M 266.230469 311.175781 L 266.253906 310.652344 C 266.402344 307.023438 266.605469 302.050781 266.933594 301.269531 C 267.382812 300.550781 268.824219 299.691406 273.144531 299.691406 C 274.703125 299.691406 276.359375 299.796875 277.820312 299.894531 C 279.066406 299.976562 280.054688 300.03125 280.8125 300.03125 L 281.359375 300.027344 C 281.785156 300.027344 282.214844 300.050781 282.523438 300.226562 C 283.238281 300.632812 283.359375 302.070312 283.398438 302.558594 C 283.894531 308.097656 283.625 313.660156 282.59375 319.101562 C 277.09375 317.957031 271.480469 317.363281 265.875 317.335938 C 266.007812 316.128906 266.109375 313.976562 266.230469 311.175781 Z M 266.230469 341.71875 L 266.253906 341.191406 C 266.402344 337.5625 266.605469 332.589844 266.933594 331.808594 C 267.382812 331.089844 268.824219 330.230469 273.144531 330.230469 C 274.703125 330.230469 276.359375 330.339844 277.820312 330.433594 C 279.066406 330.515625 280.054688 330.570312 280.8125 330.570312 L 281.417969 330.5625 C 281.9375 330.5625 282.273438 330.621094 282.523438 330.769531 C 282.578125 330.796875 282.660156 330.855469 282.777344 330.992188 L 284.039062 332.519531 L 283.425781 333.449219 L 283.492188 334.457031 C 283.835938 339.558594 283.53125 344.664062 282.589844 349.640625 C 277.09375 348.496094 271.476562 347.902344 265.875 347.875 C 266.007812 346.671875 266.109375 344.519531 266.230469 341.71875 Z M 266.230469 372.257812 L 266.253906 371.730469 C 266.402344 368.101562 266.605469 363.128906 266.933594 362.347656 C 267.382812 361.628906 268.824219 360.773438 273.144531 360.773438 C 274.703125 360.773438 276.359375 360.878906 277.820312 360.972656 C 279.066406 361.058594 280.054688 361.109375 280.8125 361.109375 L 281.417969 361.101562 C 281.9375 361.101562 282.273438 361.164062 282.523438 361.308594 C 283.238281 361.714844 283.359375 363.152344 283.398438 363.636719 C 283.894531 369.179688 283.625 374.742188 282.59375 380.179688 C 277.09375 379.039062 271.476562 378.445312 265.875 378.417969 C 266.007812 377.210938 266.109375 375.058594 266.230469 372.257812 Z M 238.796875 219.035156 C 238.957031 215.199219 239.160156 210.425781 239.484375 209.648438 C 239.933594 208.929688 241.375 208.070312 245.691406 208.070312 C 247.246094 208.070312 248.910156 208.179688 250.371094 208.273438 C 251.621094 208.355469 252.609375 208.410156 253.371094 208.410156 L 253.941406 208.402344 C 254.25 208.402344 254.699219 208.421875 255.015625 208.582031 L 255.667969 208.914062 L 255.632812 208.972656 L 255.847656 210.136719 C 255.890625 210.378906 255.914062 210.605469 255.933594 210.785156 L 255.949219 210.9375 C 256.441406 216.460938 256.167969 222.027344 255.132812 227.488281 C 249.65625 226.339844 244.042969 225.746094 238.421875 225.71875 C 238.554688 224.503906 238.664062 222.285156 238.796875 219.035156 Z M 238.796875 249.574219 C 238.957031 245.738281 239.160156 240.964844 239.484375 240.1875 C 239.933594 239.46875 241.375 238.609375 245.691406 238.609375 C 247.246094 238.609375 248.910156 238.71875 250.371094 238.8125 C 251.621094 238.894531 252.609375 238.949219 253.371094 238.949219 L 253.96875 238.941406 C 254.488281 238.941406 254.824219 239.003906 255.074219 239.144531 C 255.765625 239.542969 255.894531 240.890625 255.949219 241.476562 C 256.445312 246.996094 256.167969 252.558594 255.132812 258.019531 C 249.648438 256.878906 244.035156 256.285156 238.425781 256.257812 C 238.554688 255.039062 238.664062 252.824219 238.796875 249.574219 Z M 238.796875 280.117188 C 238.957031 276.277344 239.160156 271.503906 239.484375 270.726562 C 239.933594 270.007812 241.375 269.152344 245.691406 269.152344 C 247.25 269.152344 248.910156 269.257812 250.371094 269.351562 C 251.621094 269.4375 252.609375 269.492188 253.371094 269.492188 L 253.914062 269.488281 C 254.3125 269.488281 254.765625 269.511719 255.074219 269.6875 C 255.769531 270.082031 255.894531 271.429688 255.949219 272.019531 C 256.441406 277.535156 256.167969 283.097656 255.132812 288.558594 C 249.644531 287.417969 244.035156 286.824219 238.425781 286.796875 C 238.554688 285.582031 238.664062 283.363281 238.796875 280.117188 Z M 238.796875 310.65625 C 238.957031 306.820312 239.160156 302.046875 239.484375 301.269531 C 239.933594 300.550781 241.375 299.691406 245.691406 299.691406 C 247.25 299.691406 248.910156 299.796875 250.371094 299.894531 C 251.617188 299.976562 252.605469 300.03125 253.363281 300.03125 L 253.96875 300.023438 C 254.488281 300.023438 254.824219 300.082031 255.074219 300.226562 C 255.769531 300.621094 255.894531 301.96875 255.953125 302.558594 C 256.445312 308.078125 256.167969 313.636719 255.132812 319.101562 C 249.648438 317.957031 244.035156 317.363281 238.425781 317.335938 C 238.554688 316.121094 238.664062 313.902344 238.796875 310.65625 Z M 238.796875 341.195312 C 238.957031 337.359375 239.160156 332.585938 239.484375 331.808594 C 239.933594 331.089844 241.375 330.230469 245.691406 330.230469 C 247.25 330.230469 248.910156 330.339844 250.371094 330.433594 C 251.65625 330.519531 252.601562 330.570312 253.363281 330.570312 L 253.96875 330.5625 C 254.488281 330.5625 254.824219 330.621094 255.074219 330.765625 C 255.769531 331.164062 255.894531 332.511719 255.953125 333.097656 C 256.445312 338.617188 256.167969 344.175781 255.132812 349.640625 C 249.644531 348.496094 244.035156 347.90625 238.425781 347.875 C 238.554688 346.660156 238.664062 344.441406 238.796875 341.195312 Z M 238.796875 371.734375 C 238.957031 367.898438 239.160156 363.125 239.484375 362.347656 C 239.933594 361.628906 241.375 360.773438 245.691406 360.773438 C 247.25 360.773438 248.910156 360.878906 250.371094 360.972656 C 251.65625 361.058594 252.601562 361.109375 253.363281 361.109375 L 253.96875 361.101562 C 254.449219 361.101562 254.773438 361.152344 255.003906 361.269531 L 256.117188 362.128906 L 255.929688 362.417969 L 255.929688 363.300781 L 255.933594 363.625 L 255.960938 363.769531 C 256.4375 369.246094 256.160156 374.761719 255.132812 380.179688 C 249.644531 379.035156 244.03125 378.445312 238.425781 378.414062 C 238.554688 377.203125 238.664062 374.984375 238.796875 371.734375 Z M 238.796875 371.734375 " style=" stroke:none;fill-rule:nonzero;fill:rgb(100%,100%,100%);fill-opacity:1;" />
<path d="M 226.050781 114.925781 L 226.625 112.671875 C 227.5625 109.007812 228.539062 105.363281 229.457031 101.949219 L 230.46875 98.183594 L 110.929688 97.785156 L 115.242188 115.183594 Z M 226.050781 114.925781 " style=" stroke:none;fill-rule:nonzero;fill:rgb(100%,100%,100%);fill-opacity:1;" />
<path d="M 169.160156 20.878906 C 167.59375 20.878906 166.117188 21.039062 164.773438 21.355469 C 158.289062 22.855469 152.601562 27.566406 149.933594 33.648438 C 148.34375 37.25 147.847656 41.21875 148.519531 44.765625 C 148.5625 45.027344 148.621094 45.277344 148.664062 45.441406 C 149.066406 47.226562 149.71875 48.871094 150.597656 50.316406 C 153.886719 55.785156 160.242188 58.921875 168.023438 58.921875 C 170.535156 58.921875 173.109375 58.566406 175.464844 57.894531 C 181.445312 56.199219 186.199219 52.886719 188.835938 48.582031 C 189.625 47.3125 190.230469 45.917969 190.632812 44.457031 C 191.730469 40.578125 191.429688 36.25 189.8125 32.578125 C 186.414062 24.898438 176.851562 20.878906 169.160156 20.878906 Z M 180.53125 42.144531 C 180.320312 42.886719 180.03125 43.558594 179.65625 44.175781 C 178.300781 46.375 175.824219 48.078125 172.683594 48.976562 C 171.484375 49.316406 170.144531 49.5 168.820312 49.5 C 164.808594 49.5 161.453125 47.898438 159.820312 45.179688 C 159.410156 44.515625 159.097656 43.726562 158.894531 42.839844 L 158.859375 42.714844 C 158.851562 42.679688 158.839844 42.632812 158.816406 42.480469 C 158.480469 40.707031 158.742188 38.65625 159.535156 36.855469 C 160.910156 33.722656 163.839844 31.289062 167.171875 30.515625 C 167.859375 30.355469 168.613281 30.277344 169.414062 30.277344 C 173.421875 30.277344 178.386719 32.320312 180.117188 36.226562 C 180.921875 38.050781 181.074219 40.207031 180.53125 42.144531 Z M 180.53125 42.144531 " style=" stroke:none;fill-rule:nonzero;fill:rgb(57.647059%,60.784314%,66.666667%);fill-opacity:1;" />
<path d="M 168.566406 5.089844 C 165.703125 5.089844 162.988281 5.386719 160.511719 5.96875 C 148.53125 8.738281 138.019531 17.449219 133.082031 28.703125 C 130.171875 35.316406 129.257812 42.578125 130.503906 49.160156 C 130.585938 49.574219 130.664062 49.953125 130.773438 50.386719 C 131.496094 53.550781 132.660156 56.472656 134.230469 59.070312 C 140 68.640625 152.550781 74.828125 166.210938 74.828125 C 170.839844 74.828125 175.578125 74.148438 180.28125 72.804688 C 182.351562 72.214844 184.355469 71.519531 186.234375 70.742188 C 188.15625 69.949219 189.980469 69.0625 191.664062 68.109375 C 192.234375 67.789062 192.804688 67.453125 193.347656 67.113281 C 198.429688 63.945312 202.398438 60.0625 205.140625 55.582031 C 206.191406 53.882812 207.074219 52.03125 207.746094 50.125 C 208.007812 49.414062 208.21875 48.707031 208.371094 48.167969 L 208.488281 47.753906 L 208.488281 47.734375 C 210.347656 40.804688 209.769531 33.113281 206.882812 26.5625 C 202.15625 15.894531 187.476562 5.089844 168.566406 5.089844 Z M 188.738281 43.929688 C 188.382812 45.199219 187.855469 46.417969 187.175781 47.535156 C 184.773438 51.433594 180.425781 54.441406 174.929688 56.003906 C 172.769531 56.613281 170.417969 56.9375 168.128906 56.9375 C 161.089844 56.9375 155.164062 54.082031 152.273438 49.292969 C 151.523438 48.058594 150.957031 46.632812 150.578125 45.015625 C 150.550781 44.894531 150.511719 44.734375 150.484375 44.570312 L 150.464844 44.449219 C 149.855469 41.246094 150.308594 37.695312 151.734375 34.445312 C 154.164062 28.914062 159.328125 24.632812 165.214844 23.273438 C 166.617188 22.949219 168.078125 22.78125 169.554688 22.78125 C 178.167969 22.78125 185.707031 28.167969 188.011719 33.367188 C 189.449219 36.632812 189.714844 40.476562 188.738281 43.929688 Z M 188.738281 43.929688 " style=" stroke:none;fill-rule:nonzero;fill:rgb(74.901961%,78.039216%,84.705882%);fill-opacity:1;" />
<path d="M 230.539062 97.941406 C 230.90625 96.625 231.261719 95.304688 231.617188 93.988281 L 231.660156 93.824219 C 232.773438 89.785156 233.875 85.746094 234.945312 81.691406 C 235.527344 79.511719 236.191406 77.273438 236.898438 74.90625 L 237.316406 73.5 C 239.53125 66.144531 241.816406 58.539062 242.339844 51.492188 L 242.5625 48.5 L 239.570312 48.277344 C 238.675781 48.210938 237.738281 48.179688 236.707031 48.179688 C 233.761719 48.179688 230.636719 48.449219 227.589844 48.710938 C 225.113281 48.921875 222.886719 49.105469 220.785156 49.171875 C 218.125 49.246094 215.457031 49.3125 212.796875 49.375 L 210.214844 49.441406 L 209.5 51.328125 C 209.320312 51.808594 209.132812 52.285156 208.921875 52.757812 L 208.839844 52.953125 C 208.597656 53.492188 208.335938 54.035156 208.109375 54.492188 C 208.011719 54.671875 207.925781 54.84375 207.859375 54.980469 C 207.554688 55.554688 207.226562 56.128906 206.910156 56.65625 C 201.765625 65.023438 192.511719 71.460938 180.824219 74.789062 C 180.296875 74.945312 179.769531 75.078125 179.234375 75.21875 C 179.035156 75.261719 178.835938 75.304688 178.632812 75.355469 L 177.507812 75.613281 L 176.832031 75.742188 C 176.476562 75.816406 176.128906 75.882812 175.84375 75.9375 L 174.960938 76.078125 C 174.664062 76.128906 174.375 76.175781 174.019531 76.222656 C 173.808594 76.257812 173.597656 76.28125 173.386719 76.304688 L 173.285156 76.316406 C 172.953125 76.363281 172.621094 76.402344 172.269531 76.4375 L 171.570312 76.507812 L 170.535156 76.597656 L 169.746094 76.652344 C 169.425781 76.671875 169.101562 76.691406 168.753906 76.699219 L 167.929688 76.730469 L 166.96875 76.746094 L 166.253906 76.746094 C 165.492188 76.738281 164.730469 76.730469 163.96875 76.691406 L 163.871094 76.6875 C 163.152344 76.652344 162.421875 76.59375 161.726562 76.535156 L 161.140625 76.476562 C 160.453125 76.402344 159.765625 76.324219 159 76.210938 L 158.835938 76.1875 C 158.15625 76.09375 157.449219 75.96875 156.664062 75.804688 L 156.089844 75.691406 C 155.464844 75.5625 154.847656 75.421875 154.15625 75.242188 L 153.871094 75.175781 C 153.160156 74.988281 152.46875 74.792969 151.761719 74.566406 L 151.25 74.40625 C 150.660156 74.207031 150.082031 74.007812 149.5625 73.8125 C 149.457031 73.773438 149.085938 73.632812 149.085938 73.632812 C 148.371094 73.355469 147.707031 73.074219 147.105469 72.800781 C 147.105469 72.800781 146.707031 72.613281 146.597656 72.566406 C 146.078125 72.316406 145.5625 72.0625 144.992188 71.757812 L 144.847656 71.683594 C 144.773438 71.648438 144.699219 71.613281 144.605469 71.5625 C 143.980469 71.214844 143.359375 70.847656 142.796875 70.5 C 142.6875 70.433594 142.578125 70.363281 142.398438 70.238281 C 141.894531 69.914062 141.398438 69.578125 140.976562 69.277344 C 140.808594 69.152344 140.640625 69.035156 140.445312 68.898438 C 139.910156 68.503906 139.382812 68.078125 138.828125 67.609375 L 138.578125 67.386719 C 138.121094 66.980469 137.667969 66.566406 137.25 66.15625 L 136.820312 65.726562 C 136.257812 65.164062 135.789062 64.660156 135.398438 64.203125 L 135.25 64.015625 C 134.808594 63.488281 134.398438 62.964844 134.0625 62.503906 L 133.855469 62.222656 C 133.816406 62.167969 133.773438 62.113281 133.699219 62.003906 C 133.285156 61.410156 132.847656 60.777344 132.46875 60.140625 C 132.121094 59.566406 131.78125 58.945312 131.429688 58.257812 L 131.160156 57.710938 C 130.902344 57.171875 130.652344 56.621094 130.398438 56 C 130.398438 56 130.253906 55.664062 130.210938 55.566406 C 129.984375 54.988281 129.773438 54.402344 129.582031 53.804688 L 128.890625 51.675781 L 126.65625 51.730469 C 120.480469 51.878906 115.246094 51.957031 111.105469 51.957031 C 108.035156 51.957031 105.476562 51.914062 103.503906 51.832031 L 99.503906 51.664062 L 111.417969 99.761719 L 229.925781 100.148438 Z M 230.539062 97.941406 " style=" stroke:none;fill-rule:nonzero;fill:rgb(84.705882%,87.058824%,92.54902%);fill-opacity:1;" />
<path d="M 157.027344 196.539062 L 182.828125 196.539062 L 182.828125 179.859375 L 199.519531 179.859375 L 199.519531 154.058594 L 182.828125 154.058594 L 182.828125 137.378906 L 157.027344 137.378906 L 157.027344 154.058594 L 140.347656 154.058594 L 140.347656 179.859375 L 157.027344 179.859375 Z M 157.027344 196.539062 " style=" stroke:none;fill-rule:nonzero;fill:rgb(92.941176%,42.745098%,40%);fill-opacity:1;" />
<path d="M 84.71875 273.46875 C 87.089844 271.460938 86.777344 267.898438 86.605469 265.992188 L 85.445312 252.445312 C 85.339844 251.261719 85.195312 249.632812 84.152344 248.441406 C 82.746094 246.8125 80.394531 246.730469 78.902344 246.679688 C 77.726562 246.652344 76.097656 246.472656 74.476562 246.292969 C 71.96875 246.019531 68.84375 245.683594 65.894531 245.683594 C 61.324219 245.683594 58.355469 246.511719 56.550781 248.296875 L 56.265625 248.578125 L 56.0625 248.925781 C 55.503906 249.890625 54.457031 251.695312 54.082031 269.808594 C 54.058594 270.628906 54.039062 271.371094 54.019531 271.996094 L 53.921875 275.113281 L 79.148438 274.921875 C 80.808594 274.898438 83.085938 274.867188 84.71875 273.46875 Z M 84.71875 273.46875 " style=" stroke:none;fill-rule:nonzero;fill:rgb(92.941176%,42.745098%,40%);fill-opacity:1;" />
<path d="M 85.441406 292.453125 C 85.339844 291.261719 85.195312 289.632812 84.128906 288.414062 C 82.800781 286.910156 80.734375 286.738281 78.921875 286.691406 C 77.734375 286.652344 76.097656 286.472656 74.476562 286.292969 C 71.964844 286.019531 68.84375 285.683594 65.894531 285.683594 C 61.324219 285.683594 58.355469 286.511719 56.550781 288.296875 L 56.261719 288.578125 L 56.058594 288.929688 C 55.5 289.902344 54.457031 291.707031 54.078125 309.808594 C 54.058594 310.640625 54.039062 311.382812 54.019531 312.003906 L 53.921875 315.125 L 79.128906 314.921875 C 81.105469 314.90625 83.167969 314.785156 84.730469 313.46875 C 87.089844 311.449219 86.773438 307.894531 86.605469 305.992188 Z M 85.441406 292.453125 " style=" stroke:none;fill-rule:nonzero;fill:rgb(92.941176%,42.745098%,40%);fill-opacity:1;" />
<path d="M 85.445312 372.457031 C 85.339844 371.269531 85.195312 369.644531 84.152344 368.453125 C 82.75 366.820312 80.402344 366.742188 78.921875 366.691406 C 77.835938 366.65625 76.417969 366.507812 74.773438 366.335938 L 74.515625 366.308594 C 72.144531 366.046875 68.894531 365.6875 65.894531 365.6875 C 61.328125 365.6875 58.359375 366.515625 56.554688 368.292969 L 56.261719 368.578125 L 56.058594 368.929688 C 55.5 369.898438 54.457031 371.707031 54.078125 389.816406 C 54.058594 390.636719 54.039062 391.378906 54.019531 392.003906 L 53.921875 395.125 L 79.128906 394.917969 C 81.203125 394.90625 83.191406 394.785156 84.730469 393.46875 C 87.089844 391.449219 86.773438 387.902344 86.605469 386.003906 Z M 85.445312 372.457031 " style=" stroke:none;fill-rule:nonzero;fill:rgb(92.941176%,42.745098%,40%);fill-opacity:1;" />
<path d="M 297.820312 464.386719 C 297.691406 471.492188 296.835938 479.214844 291.410156 482.621094 C 289.332031 483.929688 286.65625 484.539062 282.988281 484.539062 C 281.636719 484.539062 280.285156 484.453125 279.050781 484.375 L 28.414062 469.152344 L 38.273438 131.472656 L 18.410156 130.871094 L 18.300781 133.847656 C 16.511719 182.640625 14.730469 231.890625 12.992188 280.039062 C 10.488281 349.183594 7.824219 422.617188 5.210938 493.507812 L 5.101562 496.507812 L 285.214844 506.804688 C 287.296875 506.882812 288.875 506.917969 290.339844 506.917969 C 296.636719 506.917969 303.789062 506.328125 309.085938 501.9375 C 316.304688 495.941406 317.253906 485.511719 317.605469 475.34375 L 329.621094 135.285156 L 303.972656 135.71875 Z M 297.820312 464.386719 " style=" stroke:none;fill-rule:nonzero;fill:rgb(35.686275%,81.568627%,98.823529%);fill-opacity:1;" />
<path d="M 147.671875 45.738281 C 148.09375 47.59375 148.78125 49.316406 149.714844 50.851562 C 153.539062 57.199219 160.917969 59.9375 168.125 59.9375 C 170.746094 59.9375 173.351562 59.574219 175.75 58.890625 C 181.980469 57.113281 186.941406 53.644531 189.726562 49.109375 C 190.558594 47.753906 191.199219 46.277344 191.632812 44.730469 C 192.792969 40.628906 192.472656 36.046875 190.753906 32.160156 C 187.355469 24.488281 175.753906 17.75 164.535156 20.351562 C 157.746094 21.921875 151.785156 26.859375 148.984375 33.242188 C 147.316406 37.039062 146.796875 41.222656 147.511719 45.003906 C 147.5625 45.277344 147.621094 45.539062 147.671875 45.738281 Z M 152.675781 34.863281 C 154.976562 29.621094 159.867188 25.566406 165.441406 24.277344 C 166.601562 24.007812 167.855469 23.878906 169.15625 23.878906 C 176.054688 23.878906 184.304688 27.550781 187.066406 33.792969 C 188.414062 36.832031 188.660156 40.421875 187.75 43.636719 C 187.75 43.640625 187.75 43.640625 187.75 43.644531 C 187.417969 44.832031 186.925781 45.96875 186.289062 47.003906 C 184.039062 50.671875 179.902344 53.515625 174.644531 55.011719 C 167.132812 57.152344 157.339844 55.699219 153.164062 48.769531 C 152.453125 47.597656 151.925781 46.273438 151.585938 44.78125 C 151.542969 44.621094 151.507812 44.453125 151.476562 44.269531 C 150.90625 41.265625 151.332031 37.921875 152.675781 34.863281 Z M 152.675781 34.863281 " style=" stroke:none;fill-rule:nonzero;fill:rgb(0%,0%,0%);fill-opacity:1;" />
<path d="M 155.964844 43.511719 C 156.234375 44.691406 156.671875 45.785156 157.265625 46.765625 C 159.679688 50.773438 164.3125 52.503906 168.8125 52.503906 C 170.429688 52.503906 172.035156 52.277344 173.507812 51.859375 C 177.371094 50.757812 180.460938 48.589844 182.207031 45.746094 C 182.734375 44.882812 183.140625 43.945312 183.417969 42.957031 C 184.152344 40.363281 183.949219 37.46875 182.863281 35.011719 C 180.210938 29.019531 172.105469 26.296875 166.5 27.59375 C 162.257812 28.574219 158.539062 31.660156 156.785156 35.648438 C 155.738281 38.03125 155.414062 40.667969 155.863281 43.042969 C 155.898438 43.226562 155.9375 43.40625 155.964844 43.511719 Z M 160.476562 37.269531 C 161.726562 34.425781 164.382812 32.222656 167.410156 31.523438 C 168.050781 31.375 168.742188 31.300781 169.457031 31.300781 C 173.210938 31.300781 177.6875 33.277344 179.175781 36.640625 C 179.890625 38.253906 180.019531 40.160156 179.539062 41.867188 C 179.539062 41.867188 179.539062 41.871094 179.535156 41.871094 C 179.359375 42.5 179.101562 43.09375 178.769531 43.636719 C 177.554688 45.617188 175.296875 47.15625 172.40625 47.980469 C 168.394531 49.125 162.933594 48.359375 160.714844 44.679688 C 160.34375 44.066406 160.070312 43.371094 159.878906 42.550781 C 159.859375 42.476562 159.847656 42.402344 159.828125 42.308594 C 159.523438 40.707031 159.753906 38.914062 160.476562 37.269531 Z M 160.476562 37.269531 " style=" stroke:none;fill-rule:nonzero;fill:rgb(0%,0%,0%);fill-opacity:1;" />
<path d="M 324.351562 61.910156 C 319.351562 59.039062 313.554688 58.746094 308.898438 58.511719 L 246.992188 55.375 C 247.355469 52.785156 247.554688 50.222656 247.5 47.734375 C 247.460938 45.898438 246.183594 44.320312 244.398438 43.898438 C 239.074219 42.640625 233.015625 43.160156 227.15625 43.664062 C 224.828125 43.863281 222.628906 44.050781 220.632812 44.109375 C 218.527344 44.167969 216.417969 44.21875 214.308594 44.269531 C 215.160156 37.589844 214.207031 30.621094 211.507812 24.519531 C 207.679688 15.871094 199.75 8.660156 189.171875 4.21875 C 179.328125 0.0820312 168.460938 -1.078125 159.371094 1.03125 C 145.867188 4.152344 134.019531 13.976562 128.449219 26.664062 C 125.617188 33.113281 124.457031 40.113281 125.058594 46.703125 C 106.292969 47.132812 101.132812 46.738281 99.730469 46.441406 C 98.203125 46.128906 96.636719 46.609375 95.546875 47.726562 C 94.449219 48.847656 94.007812 50.433594 94.375 52.023438 L 95.5625 56.816406 C 83.503906 57.839844 71.207031 57.6875 59.285156 57.523438 C 46.277344 57.347656 32.828125 57.164062 19.484375 58.496094 C 17.480469 58.695312 15.933594 60.34375 15.855469 62.359375 C 13.214844 133.867188 10.527344 208.085938 7.929688 279.859375 C 5.332031 351.632812 2.644531 425.851562 0.00390625 497.355469 C -0.0351562 498.425781 0.351562 499.464844 1.078125 500.246094 C 1.804688 501.03125 2.816406 501.492188 3.882812 501.53125 L 285.035156 511.871094 C 286.6875 511.933594 288.519531 512 290.464844 512 C 297.496094 512 305.949219 511.117188 312.316406 505.832031 C 321.136719 498.511719 322.285156 486.351562 322.667969 475.527344 L 336.121094 94.726562 C 336.539062 82.835938 335.582031 68.363281 324.351562 61.910156 Z M 308.492188 66.5625 C 312.484375 66.761719 317.011719 66.992188 320.332031 68.902344 C 327.832031 73.210938 328.402344 84.8125 328.0625 94.441406 L 326.65625 134.300781 L 306.996094 134.640625 L 307.503906 107.570312 C 307.523438 106.460938 306.644531 105.542969 305.535156 105.519531 L 234.183594 103.871094 C 234.972656 100.945312 235.765625 98.03125 236.550781 95.164062 C 237.660156 91.109375 238.765625 87.058594 239.847656 82.996094 C 240.511719 80.484375 241.304688 77.847656 242.144531 75.054688 C 243.265625 71.320312 244.453125 67.367188 245.425781 63.371094 Z M 40.023438 106.945312 C 51.238281 106.246094 62.519531 106.453125 73.453125 106.65625 C 84.664062 106.863281 96.246094 107.066406 107.828125 106.3125 L 110.523438 117.191406 C 110.96875 118.988281 112.585938 120.253906 114.4375 120.253906 C 114.441406 120.253906 114.441406 120.253906 114.449219 120.253906 L 226.871094 119.984375 C 228.71875 119.980469 230.324219 118.71875 230.773438 116.929688 C 231.523438 113.921875 232.3125 110.894531 233.109375 107.878906 L 303.433594 109.5 L 296.792969 464.359375 C 296.65625 471.539062 295.847656 478.613281 290.863281 481.75 C 287.765625 483.703125 283.707031 483.628906 279.117188 483.351562 L 29.476562 468.1875 Z M 114.769531 100.804688 L 226.558594 101.171875 C 225.59375 104.738281 224.636719 108.332031 223.71875 111.929688 L 117.589844 112.183594 Z M 135.828125 29.90625 C 140.398438 19.5 150.113281 11.445312 161.1875 8.886719 C 163.492188 8.351562 165.976562 8.089844 168.5625 8.089844 C 182.261719 8.089844 198.644531 15.382812 204.132812 27.78125 C 206.804688 33.816406 207.296875 40.941406 205.492188 47.328125 C 205.488281 47.332031 205.488281 47.335938 205.488281 47.339844 C 205.324219 47.929688 205.136719 48.515625 204.933594 49.09375 C 204.320312 50.820312 203.535156 52.46875 202.589844 54.011719 C 200.074219 58.109375 196.375 61.6875 191.761719 64.566406 C 191.246094 64.886719 190.722656 65.195312 190.1875 65.496094 C 188.585938 66.402344 186.882812 67.230469 185.089844 67.96875 C 183.300781 68.707031 181.417969 69.359375 179.460938 69.917969 C 159.75 75.535156 143.078125 67.9375 136.796875 57.519531 C 135.390625 55.191406 134.347656 52.566406 133.699219 49.722656 C 133.6875 49.679688 133.679688 49.640625 133.667969 49.597656 C 133.585938 49.277344 133.519531 48.949219 133.453125 48.585938 C 132.316406 42.617188 133.160156 35.984375 135.828125 29.90625 Z M 126.722656 54.730469 C 126.945312 55.410156 127.191406 56.078125 127.453125 56.738281 C 127.515625 56.894531 127.582031 57.042969 127.644531 57.199219 C 127.898438 57.808594 128.167969 58.40625 128.449219 58.996094 C 128.546875 59.195312 128.644531 59.398438 128.746094 59.59375 C 129.105469 60.308594 129.484375 61.011719 129.894531 61.6875 C 130.320312 62.390625 130.773438 63.0625 131.238281 63.722656 C 131.359375 63.894531 131.484375 64.0625 131.605469 64.230469 C 132.039062 64.816406 132.484375 65.390625 132.949219 65.941406 C 133 66 133.046875 66.066406 133.097656 66.125 C 133.613281 66.722656 134.148438 67.296875 134.695312 67.851562 C 134.839844 67.996094 134.984375 68.136719 135.128906 68.277344 C 135.605469 68.746094 136.09375 69.203125 136.597656 69.640625 C 136.695312 69.726562 136.789062 69.8125 136.886719 69.898438 C 137.476562 70.398438 138.082031 70.875 138.699219 71.332031 C 138.855469 71.449219 139.015625 71.5625 139.171875 71.675781 C 139.691406 72.050781 140.222656 72.410156 140.761719 72.761719 C 140.898438 72.847656 141.035156 72.941406 141.171875 73.027344 C 141.824219 73.433594 142.484375 73.816406 143.160156 74.1875 C 143.320312 74.273438 143.484375 74.355469 143.644531 74.441406 C 144.210938 74.738281 144.78125 75.023438 145.355469 75.292969 C 145.523438 75.371094 145.691406 75.453125 145.859375 75.527344 C 146.5625 75.847656 147.273438 76.148438 147.992188 76.429688 C 148.144531 76.488281 148.296875 76.539062 148.449219 76.597656 C 149.054688 76.828125 149.671875 77.042969 150.289062 77.246094 C 150.476562 77.308594 150.667969 77.371094 150.855469 77.429688 C 151.601562 77.664062 152.347656 77.882812 153.105469 78.078125 C 153.230469 78.109375 153.355469 78.136719 153.484375 78.171875 C 154.140625 78.335938 154.804688 78.488281 155.46875 78.625 C 155.671875 78.667969 155.875 78.710938 156.078125 78.75 C 156.851562 78.902344 157.628906 79.042969 158.414062 79.160156 C 158.484375 79.171875 158.558594 79.175781 158.632812 79.1875 C 159.355469 79.292969 160.082031 79.378906 160.8125 79.453125 C 161.019531 79.476562 161.222656 79.496094 161.429688 79.515625 C 162.214844 79.585938 163 79.648438 163.789062 79.6875 C 163.800781 79.6875 163.808594 79.6875 163.820312 79.6875 C 164.621094 79.726562 165.417969 79.742188 166.21875 79.746094 C 166.3125 79.746094 166.410156 79.753906 166.503906 79.753906 C 166.65625 79.753906 166.808594 79.746094 166.960938 79.742188 C 167.316406 79.742188 167.667969 79.734375 168.019531 79.726562 C 168.300781 79.71875 168.582031 79.707031 168.859375 79.699219 C 169.214844 79.683594 169.566406 79.664062 169.917969 79.644531 C 170.195312 79.625 170.472656 79.609375 170.746094 79.589844 C 171.101562 79.5625 171.460938 79.53125 171.816406 79.496094 C 172.082031 79.472656 172.351562 79.445312 172.621094 79.417969 C 172.980469 79.378906 173.339844 79.332031 173.699219 79.289062 C 173.957031 79.253906 174.21875 79.222656 174.476562 79.1875 C 174.84375 79.136719 175.210938 79.074219 175.578125 79.015625 C 175.824219 78.976562 176.070312 78.9375 176.3125 78.894531 C 176.691406 78.828125 177.070312 78.753906 177.445312 78.679688 C 177.671875 78.636719 177.902344 78.59375 178.128906 78.546875 C 178.539062 78.457031 178.945312 78.363281 179.347656 78.265625 C 179.539062 78.222656 179.726562 78.183594 179.914062 78.136719 C 180.503906 77.988281 181.089844 77.835938 181.667969 77.671875 C 194.054688 74.140625 203.921875 67.238281 209.460938 58.226562 C 209.828125 57.625 210.171875 57.007812 210.5 56.382812 C 210.585938 56.222656 210.667969 56.0625 210.75 55.902344 C 211.039062 55.332031 211.316406 54.757812 211.574219 54.175781 C 211.601562 54.105469 211.636719 54.039062 211.667969 53.96875 C 211.894531 53.445312 212.109375 52.917969 212.308594 52.386719 C 215.160156 52.316406 218.011719 52.246094 220.859375 52.164062 C 223.082031 52.101562 225.394531 51.902344 227.84375 51.691406 C 231.792969 51.351562 235.84375 51.003906 239.339844 51.269531 C 238.839844 58.019531 236.597656 65.480469 234.417969 72.730469 C 233.5625 75.585938 232.75 78.285156 232.050781 80.921875 C 230.976562 84.964844 229.871094 88.996094 228.769531 93.03125 C 228.398438 94.390625 228.023438 95.761719 227.648438 97.140625 L 113.769531 96.769531 L 103.375 54.828125 C 107.441406 54.996094 114.394531 55.03125 126.722656 54.730469 Z M 59.171875 65.585938 C 71.710938 65.757812 84.65625 65.921875 97.523438 64.738281 L 106.84375 102.332031 C 95.664062 103.023438 84.421875 102.824219 73.527344 102.625 C 61.917969 102.410156 49.910156 102.1875 37.917969 103.042969 C 36.886719 103.117188 36.078125 103.960938 36.046875 104.996094 L 35.308594 130.355469 L 21.441406 129.929688 C 22.222656 108.550781 23.003906 87.261719 23.78125 66.203125 C 35.554688 65.265625 47.542969 65.429688 59.171875 65.585938 Z M 314.609375 475.242188 C 314.273438 484.734375 313.421875 494.4375 307.167969 499.628906 C 301.847656 504.039062 293.800781 504.125 285.332031 503.8125 L 8.207031 493.621094 C 10.800781 423.359375 13.4375 350.574219 15.984375 280.152344 C 17.730469 232 19.511719 182.753906 21.292969 133.960938 L 35.1875 134.386719 L 25.390625 470.023438 C 25.359375 471.113281 26.195312 472.027344 27.285156 472.09375 L 278.871094 487.375 C 280.128906 487.449219 281.527344 487.535156 282.992188 487.535156 C 286.292969 487.535156 289.929688 487.101562 293.011719 485.160156 C 299.628906 480.992188 300.675781 472.34375 300.820312 464.433594 L 306.921875 138.671875 L 326.511719 138.332031 Z M 314.609375 475.242188 " style=" stroke:none;fill-rule:nonzero;fill:rgb(0%,0%,0%);fill-opacity:1;" />
<path d="M 141.332031 180.890625 L 156 180.890625 L 156 195.558594 C 156 196.671875 156.902344 197.574219 158.015625 197.574219 L 181.847656 197.574219 C 182.960938 197.574219 183.863281 196.671875 183.863281 195.558594 L 183.863281 180.890625 L 198.53125 180.890625 C 199.644531 180.890625 200.546875 179.988281 200.546875 178.875 L 200.546875 155.039062 C 200.546875 153.929688 199.644531 153.023438 198.53125 153.023438 L 183.863281 153.023438 L 183.863281 138.359375 C 183.863281 137.246094 182.960938 136.34375 181.847656 136.34375 L 158.015625 136.34375 C 156.902344 136.34375 156 137.246094 156 138.359375 L 156 153.023438 L 141.332031 153.023438 C 140.21875 153.023438 139.316406 153.929688 139.316406 155.039062 L 139.316406 178.875 C 139.316406 179.988281 140.21875 180.890625 141.332031 180.890625 Z M 143.347656 157.058594 L 158.015625 157.058594 C 159.128906 157.058594 160.03125 156.15625 160.03125 155.042969 L 160.03125 140.375 L 179.832031 140.375 L 179.832031 155.042969 C 179.832031 156.15625 180.734375 157.058594 181.847656 157.058594 L 196.515625 157.058594 L 196.515625 176.859375 L 181.847656 176.859375 C 180.734375 176.859375 179.832031 177.761719 179.832031 178.875 L 179.832031 193.542969 L 160.03125 193.542969 L 160.03125 178.875 C 160.03125 177.761719 159.128906 176.859375 158.015625 176.859375 L 143.347656 176.859375 Z M 143.347656 157.058594 " style=" stroke:none;fill-rule:nonzero;fill:rgb(0%,0%,0%);fill-opacity:1;" />
<path d="M 54.871094 236.140625 C 54.875 236.140625 54.882812 236.136719 54.886719 236.140625 L 79.140625 235.945312 C 80.855469 235.929688 83.453125 235.910156 85.398438 234.242188 C 88.15625 231.890625 87.804688 227.84375 87.636719 225.898438 L 86.472656 212.390625 C 86.464844 212.300781 86.453125 212.195312 86.445312 212.09375 L 99.097656 194.472656 C 99.746094 193.570312 99.539062 192.308594 98.636719 191.660156 C 97.730469 191.011719 96.472656 191.21875 95.824219 192.121094 L 84.730469 207.570312 C 83.003906 205.785156 80.382812 205.691406 78.945312 205.648438 C 77.84375 205.617188 76.351562 205.453125 74.625 205.265625 C 67.933594 204.539062 59.609375 203.632812 55.707031 207.675781 C 54.03125 209.414062 53.382812 214.785156 53.042969 229.785156 C 53.007812 231.386719 52.96875 233.039062 52.925781 233.585938 C 52.878906 233.761719 52.851562 233.949219 52.855469 234.140625 C 52.863281 235.246094 53.765625 236.140625 54.871094 236.140625 Z M 57.074219 229.875 C 57.171875 225.558594 57.464844 212.480469 58.660156 210.421875 C 61.25 207.867188 69.027344 208.714844 74.1875 209.273438 C 76 209.472656 77.566406 209.644531 78.828125 209.679688 C 80.035156 209.714844 81.363281 209.800781 81.882812 210.398438 C 82.027344 210.5625 82.121094 210.816406 82.203125 211.09375 L 74.953125 221.1875 L 68.007812 214.972656 C 67.179688 214.230469 65.90625 214.300781 65.164062 215.132812 C 64.417969 215.960938 64.492188 217.234375 65.320312 217.976562 L 73.9375 225.6875 C 74.308594 226.023438 74.789062 226.203125 75.28125 226.203125 C 75.351562 226.203125 75.425781 226.199219 75.5 226.191406 C 76.066406 226.128906 76.585938 225.828125 76.917969 225.363281 L 82.832031 217.125 L 83.621094 226.246094 C 83.796875 228.285156 83.816406 230.292969 82.78125 231.179688 C 82.011719 231.835938 80.605469 231.902344 79.105469 231.914062 L 57.019531 232.09375 C 57.039062 231.460938 57.054688 230.710938 57.074219 229.875 Z M 54.507812 232.140625 C 54.179688 232.199219 53.875 232.339844 53.621094 232.539062 C 53.859375 232.351562 54.160156 232.203125 54.507812 232.140625 Z M 54.507812 232.140625 " style=" stroke:none;fill-rule:nonzero;fill:rgb(0%,0%,0%);fill-opacity:1;" />
<path d="M 96.890625 209.246094 C 95.789062 209.246094 94.886719 210.132812 94.875 211.234375 C 94.859375 212.347656 95.753906 213.261719 96.867188 213.277344 L 193.9375 214.476562 C 193.949219 214.476562 193.957031 214.476562 193.964844 214.476562 C 195.066406 214.476562 195.964844 213.589844 195.980469 212.484375 C 195.996094 211.371094 195.101562 210.457031 193.992188 210.441406 L 96.917969 209.246094 C 96.90625 209.246094 96.898438 209.246094 96.890625 209.246094 Z M 96.890625 209.246094 " style=" stroke:none;fill-rule:nonzero;fill:rgb(0%,0%,0%);fill-opacity:1;" />
<path d="M 130.507812 235.824219 C 139.101562 236.019531 147.988281 236.226562 164.171875 236.425781 C 164.183594 236.425781 164.191406 236.425781 164.199219 236.425781 C 165.300781 236.425781 166.199219 235.539062 166.214844 234.433594 C 166.226562 233.320312 165.335938 232.40625 164.222656 232.394531 C 148.0625 232.191406 139.183594 231.988281 130.597656 231.792969 C 122 231.597656 113.109375 231.394531 96.914062 231.195312 C 96.90625 231.195312 96.898438 231.195312 96.886719 231.195312 C 95.785156 231.195312 94.886719 232.078125 94.875 233.183594 C 94.859375 234.296875 95.75 235.210938 96.863281 235.226562 C 113.039062 235.425781 121.917969 235.628906 130.507812 235.824219 Z M 130.507812 235.824219 " style=" stroke:none;fill-rule:nonzero;fill:rgb(0%,0%,0%);fill-opacity:1;" />
<path d="M 96.917969 220.179688 C 95.828125 220.160156 94.890625 221.058594 94.875 222.171875 C 94.859375 223.285156 95.75 224.199219 96.863281 224.214844 C 113.046875 224.421875 137.074219 224.886719 160.3125 225.335938 C 183.523438 225.78125 207.527344 226.246094 223.703125 226.457031 C 223.710938 226.457031 223.71875 226.457031 223.730469 226.457031 C 224.832031 226.457031 225.730469 225.570312 225.746094 224.464844 C 225.757812 223.351562 224.867188 222.4375 223.753906 222.425781 C 207.589844 222.214844 183.59375 221.753906 160.390625 221.304688 C 137.144531 220.855469 113.109375 220.390625 96.917969 220.179688 Z M 96.917969 220.179688 " style=" stroke:none;fill-rule:nonzero;fill:rgb(0%,0%,0%);fill-opacity:1;" />
<path d="M 54.871094 276.144531 C 54.875 276.144531 54.882812 276.140625 54.886719 276.144531 L 79.140625 275.945312 C 80.855469 275.933594 83.453125 275.910156 85.398438 274.246094 C 88.15625 271.890625 87.804688 267.847656 87.636719 265.902344 L 86.472656 252.394531 C 86.363281 251.132812 86.199219 249.222656 84.925781 247.757812 C 83.203125 245.777344 80.433594 245.695312 78.945312 245.652344 C 77.84375 245.621094 76.351562 245.457031 74.625 245.269531 C 67.933594 244.542969 59.609375 243.636719 55.707031 247.679688 C 54.03125 249.417969 53.382812 254.789062 53.042969 269.785156 C 53.007812 271.390625 52.96875 273.042969 52.925781 273.589844 C 52.878906 273.765625 52.851562 273.949219 52.855469 274.144531 C 52.863281 275.25 53.765625 276.144531 54.871094 276.144531 Z M 57.074219 269.878906 C 57.171875 265.5625 57.464844 252.484375 58.660156 250.425781 C 61.25 247.867188 69.027344 248.714844 74.1875 249.277344 C 76 249.476562 77.566406 249.644531 78.828125 249.683594 C 79.699219 249.707031 81.320312 249.753906 81.882812 250.402344 C 82.292969 250.878906 82.386719 251.957031 82.457031 252.742188 L 83.621094 266.25 C 83.796875 268.289062 83.816406 270.296875 82.78125 271.183594 C 82.015625 271.839844 80.605469 271.902344 79.109375 271.917969 L 57.019531 272.097656 C 57.039062 271.464844 57.054688 270.714844 57.074219 269.878906 Z M 54.507812 272.144531 C 54.179688 272.203125 53.875 272.34375 53.621094 272.542969 C 53.859375 272.351562 54.160156 272.207031 54.507812 272.144531 Z M 54.507812 272.144531 " style=" stroke:none;fill-rule:nonzero;fill:rgb(0%,0%,0%);fill-opacity:1;" />
<path d="M 96.863281 253.277344 L 193.9375 254.476562 C 193.949219 254.476562 193.957031 254.476562 193.964844 254.476562 C 195.066406 254.476562 195.964844 253.59375 195.980469 252.488281 C 195.992188 251.375 195.101562 250.460938 193.988281 250.445312 L 96.914062 249.246094 C 96.90625 249.246094 96.898438 249.246094 96.890625 249.246094 C 95.789062 249.246094 94.886719 250.132812 94.875 251.238281 C 94.859375 252.351562 95.75 253.265625 96.863281 253.277344 Z M 96.863281 253.277344 " style=" stroke:none;fill-rule:nonzero;fill:rgb(0%,0%,0%);fill-opacity:1;" />
<path d="M 96.863281 275.230469 C 113.03125 275.429688 121.910156 275.632812 130.496094 275.828125 C 139.09375 276.023438 147.984375 276.226562 164.171875 276.429688 C 164.179688 276.429688 164.1875 276.429688 164.199219 276.429688 C 165.300781 276.429688 166.199219 275.542969 166.214844 274.4375 C 166.226562 273.324219 165.335938 272.410156 164.222656 272.394531 C 148.054688 272.195312 139.175781 271.992188 130.589844 271.796875 C 121.992188 271.601562 113.101562 271.398438 96.914062 271.195312 C 96.90625 271.195312 96.898438 271.195312 96.886719 271.195312 C 95.785156 271.195312 94.886719 272.082031 94.875 273.1875 C 94.859375 274.300781 95.75 275.214844 96.863281 275.230469 Z M 96.863281 275.230469 " style=" stroke:none;fill-rule:nonzero;fill:rgb(0%,0%,0%);fill-opacity:1;" />
<path d="M 223.753906 262.425781 C 207.574219 262.21875 183.542969 261.753906 160.304688 261.304688 C 137.09375 260.855469 113.089844 260.394531 96.917969 260.183594 C 95.828125 260.171875 94.890625 261.058594 94.875 262.175781 C 94.859375 263.285156 95.75 264.199219 96.863281 264.214844 C 113.027344 264.425781 137.023438 264.886719 160.226562 265.335938 C 183.472656 265.785156 207.507812 266.25 223.703125 266.457031 C 223.710938 266.457031 223.71875 266.457031 223.730469 266.457031 C 224.832031 266.457031 225.730469 265.574219 225.746094 264.46875 C 225.757812 263.355469 224.867188 262.441406 223.753906 262.425781 Z M 223.753906 262.425781 " style=" stroke:none;fill-rule:nonzero;fill:rgb(0%,0%,0%);fill-opacity:1;" />
<path d="M 54.871094 316.144531 C 54.875 316.144531 54.878906 316.144531 54.886719 316.144531 L 79.140625 315.949219 C 80.855469 315.9375 83.453125 315.914062 85.398438 314.25 C 88.15625 311.894531 87.804688 307.851562 87.636719 305.90625 L 86.472656 292.398438 C 86.363281 291.136719 86.199219 289.226562 84.925781 287.761719 C 83.207031 285.78125 80.433594 285.699219 78.945312 285.65625 C 77.84375 285.621094 76.351562 285.460938 74.625 285.273438 C 67.9375 284.546875 59.609375 283.636719 55.707031 287.683594 C 54.027344 289.421875 53.382812 294.792969 53.042969 309.789062 C 53.007812 311.390625 52.96875 313.046875 52.925781 313.59375 C 52.878906 313.769531 52.851562 313.953125 52.855469 314.144531 C 52.863281 315.253906 53.765625 316.144531 54.871094 316.144531 Z M 57.074219 309.882812 C 57.171875 305.566406 57.464844 292.488281 58.660156 290.429688 C 61.246094 287.871094 69.027344 288.71875 74.1875 289.28125 C 76 289.476562 77.566406 289.648438 78.828125 289.683594 C 80.035156 289.71875 81.363281 289.808594 81.882812 290.402344 C 82.292969 290.878906 82.386719 291.957031 82.457031 292.742188 L 83.621094 306.25 C 83.796875 308.289062 83.816406 310.296875 82.78125 311.183594 C 82.015625 311.839844 80.605469 311.90625 79.109375 311.917969 L 57.019531 312.097656 C 57.039062 311.46875 57.054688 310.71875 57.074219 309.882812 Z M 54.851562 312.113281 C 54.394531 312.117188 53.972656 312.277344 53.636719 312.535156 C 53.949219 312.289062 54.355469 312.117188 54.851562 312.113281 Z M 54.851562 312.113281 " style=" stroke:none;fill-rule:nonzero;fill:rgb(0%,0%,0%);fill-opacity:1;" />
<path d="M 96.863281 293.28125 L 193.9375 294.480469 C 193.949219 294.480469 193.957031 294.480469 193.964844 294.480469 C 195.066406 294.480469 195.964844 293.59375 195.980469 292.488281 C 195.992188 291.375 195.101562 290.460938 193.988281 290.449219 L 96.914062 289.25 C 96.90625 289.25 96.898438 289.25 96.890625 289.25 C 95.789062 289.25 94.886719 290.136719 94.875 291.238281 C 94.859375 292.355469 95.75 293.269531 96.863281 293.28125 Z M 96.863281 293.28125 " style=" stroke:none;fill-rule:nonzero;fill:rgb(0%,0%,0%);fill-opacity:1;" />
<path d="M 96.863281 315.230469 C 113.03125 315.429688 121.910156 315.636719 130.496094 315.832031 C 139.09375 316.027344 147.984375 316.230469 164.171875 316.429688 C 164.179688 316.429688 164.1875 316.429688 164.199219 316.429688 C 165.300781 316.429688 166.199219 315.546875 166.214844 314.441406 C 166.226562 313.328125 165.335938 312.414062 164.222656 312.398438 C 148.054688 312.199219 139.175781 311.996094 130.589844 311.800781 C 121.992188 311.605469 113.101562 311.398438 96.914062 311.199219 C 96.90625 311.199219 96.898438 311.199219 96.886719 311.199219 C 95.785156 311.199219 94.886719 312.085938 94.875 313.191406 C 94.859375 314.304688 95.75 315.21875 96.863281 315.230469 Z M 96.863281 315.230469 " style=" stroke:none;fill-rule:nonzero;fill:rgb(0%,0%,0%);fill-opacity:1;" />
<path d="M 223.753906 302.429688 C 207.582031 302.222656 183.570312 301.757812 160.347656 301.308594 C 137.121094 300.859375 113.101562 300.394531 96.917969 300.1875 C 95.828125 300.183594 94.890625 301.0625 94.875 302.175781 C 94.859375 303.289062 95.75 304.203125 96.863281 304.21875 C 113.039062 304.425781 137.050781 304.890625 160.269531 305.339844 C 183.5 305.789062 207.515625 306.253906 223.703125 306.460938 C 223.710938 306.460938 223.71875 306.460938 223.730469 306.460938 C 224.832031 306.460938 225.730469 305.578125 225.746094 304.472656 C 225.757812 303.359375 224.867188 302.445312 223.753906 302.429688 Z M 223.753906 302.429688 " style=" stroke:none;fill-rule:nonzero;fill:rgb(0%,0%,0%);fill-opacity:1;" />
<path d="M 54.871094 356.148438 C 54.875 356.148438 54.882812 356.144531 54.886719 356.148438 L 79.140625 355.953125 C 80.855469 355.9375 83.453125 355.917969 85.398438 354.253906 C 88.15625 351.898438 87.804688 347.851562 87.636719 345.90625 L 86.886719 337.21875 L 97.046875 320.683594 C 97.628906 319.734375 97.332031 318.492188 96.382812 317.910156 C 95.433594 317.324219 94.191406 317.625 93.609375 318.570312 L 86.230469 330.585938 C 86.035156 329.640625 85.675781 328.625 84.925781 327.765625 C 83.207031 325.78125 80.433594 325.703125 78.945312 325.65625 C 77.84375 325.625 76.351562 325.464844 74.621094 325.273438 C 67.933594 324.546875 59.609375 323.640625 55.707031 327.6875 C 54.03125 329.425781 53.382812 334.796875 53.042969 349.792969 C 53.007812 351.394531 52.96875 353.046875 52.925781 353.597656 C 52.878906 353.773438 52.851562 353.957031 52.855469 354.148438 C 52.863281 355.257812 53.765625 356.148438 54.871094 356.148438 Z M 57.074219 349.886719 C 57.171875 345.570312 57.464844 332.492188 58.660156 330.433594 C 61.25 327.875 69.027344 328.722656 74.183594 329.28125 C 76 329.480469 77.566406 329.652344 78.828125 329.6875 C 80.035156 329.722656 81.363281 329.8125 81.882812 330.40625 C 82.292969 330.882812 82.386719 331.960938 82.457031 332.746094 L 82.757812 336.242188 L 78.050781 343.902344 L 67.90625 334.226562 C 67.097656 333.457031 65.824219 333.488281 65.054688 334.292969 C 64.285156 335.101562 64.316406 336.375 65.121094 337.144531 L 77.074219 348.539062 C 77.449219 348.902344 77.949219 349.097656 78.464844 349.097656 C 78.550781 349.097656 78.636719 349.09375 78.722656 349.082031 C 79.328125 349.003906 79.863281 348.65625 80.179688 348.136719 L 83.339844 342.992188 L 83.621094 346.253906 C 83.796875 348.292969 83.816406 350.300781 82.78125 351.1875 C 82.011719 351.84375 80.605469 351.910156 79.109375 351.921875 L 57.019531 352.101562 C 57.039062 351.46875 57.054688 350.722656 57.074219 349.886719 Z M 54.507812 352.148438 C 54.179688 352.210938 53.875 352.351562 53.621094 352.550781 C 53.859375 352.359375 54.160156 352.210938 54.507812 352.148438 Z M 54.507812 352.148438 " style=" stroke:none;fill-rule:nonzero;fill:rgb(0%,0%,0%);fill-opacity:1;" />
<path d="M 96.890625 329.253906 C 95.789062 329.253906 94.886719 330.140625 94.875 331.242188 C 94.859375 332.355469 95.753906 333.269531 96.867188 333.285156 L 193.9375 334.484375 C 193.949219 334.484375 193.957031 334.484375 193.964844 334.484375 C 195.066406 334.484375 195.964844 333.597656 195.980469 332.492188 C 195.996094 331.378906 195.101562 330.464844 193.992188 330.449219 L 96.917969 329.253906 C 96.90625 329.253906 96.898438 329.253906 96.890625 329.253906 Z M 96.890625 329.253906 " style=" stroke:none;fill-rule:nonzero;fill:rgb(0%,0%,0%);fill-opacity:1;" />
<path d="M 96.863281 355.234375 C 113.039062 355.433594 121.917969 355.636719 130.507812 355.832031 C 139.101562 356.03125 147.988281 356.234375 164.171875 356.433594 C 164.183594 356.433594 164.191406 356.433594 164.199219 356.433594 C 165.300781 356.433594 166.199219 355.546875 166.214844 354.441406 C 166.226562 353.328125 165.335938 352.414062 164.222656 352.402344 C 148.0625 352.203125 139.183594 352 130.597656 351.804688 C 122 351.605469 113.109375 351.402344 96.914062 351.203125 C 96.90625 351.203125 96.898438 351.203125 96.886719 351.203125 C 95.785156 351.203125 94.886719 352.089844 94.875 353.195312 C 94.859375 354.308594 95.75 355.222656 96.863281 355.234375 Z M 96.863281 355.234375 " style=" stroke:none;fill-rule:nonzero;fill:rgb(0%,0%,0%);fill-opacity:1;" />
<path d="M 223.753906 342.433594 C 207.589844 342.226562 183.59375 341.761719 160.390625 341.3125 C 137.144531 340.863281 113.109375 340.398438 96.917969 340.191406 C 95.828125 340.195312 94.890625 341.066406 94.875 342.179688 C 94.859375 343.292969 95.75 344.207031 96.863281 344.222656 C 113.046875 344.429688 137.074219 344.894531 160.3125 345.34375 C 183.523438 345.792969 207.527344 346.257812 223.703125 346.464844 C 223.710938 346.464844 223.71875 346.464844 223.730469 346.464844 C 224.832031 346.464844 225.730469 345.578125 225.746094 344.476562 C 225.757812 343.363281 224.867188 342.449219 223.753906 342.433594 Z M 223.753906 342.433594 " style=" stroke:none;fill-rule:nonzero;fill:rgb(0%,0%,0%);fill-opacity:1;" />
<path d="M 54.871094 396.152344 C 54.875 396.152344 54.882812 396.148438 54.886719 396.152344 L 79.140625 395.957031 C 80.855469 395.941406 83.453125 395.921875 85.398438 394.257812 C 88.15625 391.902344 87.804688 387.855469 87.636719 385.910156 L 86.472656 372.40625 C 86.363281 371.140625 86.199219 369.234375 84.925781 367.765625 C 83.203125 365.785156 80.433594 365.707031 78.945312 365.660156 C 77.84375 365.628906 76.351562 365.46875 74.625 365.277344 C 67.933594 364.550781 59.609375 363.644531 55.707031 367.6875 C 54.03125 369.425781 53.382812 374.800781 53.042969 389.796875 C 53.007812 391.398438 52.96875 393.050781 52.925781 393.597656 C 52.878906 393.773438 52.851562 393.960938 52.855469 394.152344 C 52.863281 395.261719 53.765625 396.152344 54.871094 396.152344 Z M 57.074219 389.886719 C 57.171875 385.570312 57.464844 372.492188 58.660156 370.433594 C 61.25 367.878906 69.027344 368.722656 74.1875 369.285156 C 76 369.484375 77.566406 369.652344 78.828125 369.691406 C 79.699219 369.71875 81.320312 369.761719 81.882812 370.410156 C 82.292969 370.886719 82.386719 371.964844 82.457031 372.75 L 83.621094 386.257812 C 83.796875 388.296875 83.816406 390.304688 82.78125 391.191406 C 82.015625 391.847656 80.605469 391.914062 79.109375 391.925781 L 57.019531 392.105469 C 57.039062 391.472656 57.054688 390.722656 57.074219 389.886719 Z M 54.507812 392.152344 C 54.179688 392.214844 53.875 392.351562 53.621094 392.554688 C 53.859375 392.359375 54.160156 392.214844 54.507812 392.152344 Z M 54.507812 392.152344 " style=" stroke:none;fill-rule:nonzero;fill:rgb(0%,0%,0%);fill-opacity:1;" />
<path d="M 96.863281 373.285156 L 193.9375 374.484375 C 193.949219 374.484375 193.957031 374.484375 193.964844 374.484375 C 195.066406 374.484375 195.964844 373.601562 195.980469 372.496094 C 195.992188 371.382812 195.101562 370.46875 193.988281 370.453125 L 96.914062 369.253906 C 96.90625 369.253906 96.898438 369.253906 96.890625 369.253906 C 95.789062 369.253906 94.886719 370.140625 94.875 371.246094 C 94.859375 372.359375 95.75 373.273438 96.863281 373.285156 Z M 96.863281 373.285156 " style=" stroke:none;fill-rule:nonzero;fill:rgb(0%,0%,0%);fill-opacity:1;" />
<path d="M 166.214844 394.445312 C 166.226562 393.332031 165.335938 392.417969 164.222656 392.40625 C 148.054688 392.207031 139.175781 392.003906 130.589844 391.804688 C 121.992188 391.609375 113.105469 391.40625 96.914062 391.207031 C 96.90625 391.207031 96.898438 391.207031 96.890625 391.207031 C 95.789062 391.207031 94.886719 392.09375 94.875 393.195312 C 94.859375 394.308594 95.753906 395.222656 96.867188 395.238281 C 113.035156 395.4375 121.914062 395.640625 130.5 395.835938 C 139.09375 396.03125 147.984375 396.238281 164.171875 396.4375 C 164.183594 396.4375 164.191406 396.4375 164.199219 396.4375 C 165.300781 396.4375 166.199219 395.550781 166.214844 394.445312 Z M 166.214844 394.445312 " style=" stroke:none;fill-rule:nonzero;fill:rgb(0%,0%,0%);fill-opacity:1;" />
<path d="M 160.304688 381.3125 C 137.09375 380.867188 113.089844 380.402344 96.917969 380.191406 C 95.828125 380.207031 94.890625 381.070312 94.875 382.183594 C 94.859375 383.296875 95.75 384.210938 96.863281 384.226562 C 113.027344 384.433594 137.023438 384.898438 160.226562 385.34375 C 183.472656 385.792969 207.507812 386.257812 223.703125 386.46875 C 223.710938 386.46875 223.71875 386.46875 223.730469 386.46875 C 224.832031 386.46875 225.730469 385.582031 225.746094 384.476562 C 225.757812 383.363281 224.867188 382.449219 223.753906 382.433594 C 207.574219 382.226562 183.542969 381.761719 160.304688 381.3125 Z M 160.304688 381.3125 " style=" stroke:none;fill-rule:nonzero;fill:rgb(0%,0%,0%);fill-opacity:1;" />
<path d="M 218.386719 450.394531 C 216.554688 449.699219 215.589844 447.34375 215.585938 445.375 C 215.585938 445.296875 215.585938 445.21875 215.589844 445.140625 C 220.929688 439.28125 223.941406 431.316406 223.632812 423.367188 C 223.59375 422.425781 222.910156 421.632812 221.980469 421.464844 C 221.054688 421.289062 220.128906 421.792969 219.761719 422.660156 L 213.945312 436.414062 C 213.054688 438.519531 212.070312 440.851562 211.703125 443.371094 C 210.996094 444.070312 210.246094 444.730469 209.457031 445.34375 C 206.996094 447.257812 203.277344 448.949219 200.402344 447.867188 C 210.109375 438.109375 215.925781 424.429688 215.492188 410.589844 C 215.46875 409.863281 215.058594 409.207031 214.417969 408.867188 C 213.773438 408.53125 213 408.5625 212.390625 408.953125 C 203.105469 414.890625 196.203125 424.414062 193.445312 435.082031 C 192.363281 439.277344 192.269531 444.289062 194.457031 447.871094 C 191.332031 450.488281 187.859375 452.695312 184.109375 454.367188 C 179.484375 456.433594 173.445312 457.410156 170.371094 453.960938 C 167.53125 450.773438 168.757812 445.273438 169.738281 442.277344 C 173.945312 429.457031 183.828125 418.550781 196.171875 413.097656 C 197.191406 412.648438 197.652344 411.457031 197.203125 410.441406 C 196.753906 409.421875 195.558594 408.960938 194.542969 409.410156 C 181.171875 415.316406 170.46875 427.132812 165.910156 441.019531 C 163.710938 447.707031 164.214844 453.109375 167.363281 456.644531 C 171.882812 461.714844 179.828125 460.695312 185.753906 458.050781 C 189.933594 456.183594 193.796875 453.710938 197.261719 450.769531 C 197.386719 450.847656 197.511719 450.925781 197.640625 451 C 202.320312 453.734375 208.089844 451.515625 211.933594 448.527344 C 211.960938 448.503906 211.984375 448.484375 212.011719 448.464844 C 212.734375 450.894531 214.339844 453.171875 216.957031 454.164062 C 220.707031 455.589844 224.992188 453.933594 229.03125 449.507812 C 230.296875 448.121094 231.476562 446.667969 232.566406 445.152344 C 232.636719 446.824219 232.820312 448.492188 233.117188 450.144531 C 233.25 450.910156 233.8125 451.527344 234.558594 451.734375 C 235.304688 451.941406 236.101562 451.703125 236.617188 451.121094 L 243.019531 443.816406 C 243.019531 443.910156 243.019531 444.007812 243.019531 444.101562 C 243.078125 448.101562 245.769531 452.460938 250.167969 452.839844 C 252.835938 453.070312 255.078125 451.765625 256.835938 450.171875 C 257.6875 457.039062 257.378906 463.859375 253.910156 469.390625 C 253.316406 470.332031 253.601562 471.574219 254.542969 472.167969 C 254.878906 472.378906 255.25 472.476562 255.613281 472.476562 C 256.285156 472.476562 256.941406 472.140625 257.324219 471.53125 C 262.042969 464.019531 261.816406 454.925781 260.320312 446.195312 C 267.308594 437.121094 272.164062 426.445312 274.398438 415.207031 C 275.804688 408.132812 274.351562 402.964844 270.304688 400.648438 C 267.703125 399.160156 264.265625 399.214844 261.324219 400.789062 C 259.0625 402 257.117188 404.03125 255.539062 406.828125 C 249.6875 417.203125 252.675781 430.175781 254.859375 439.648438 C 255.269531 441.4375 255.671875 443.269531 256.027344 445.125 C 256.007812 445.144531 255.992188 445.167969 255.972656 445.191406 C 253.84375 447.804688 252.109375 448.96875 250.511719 448.824219 C 248.511719 448.652344 247.082031 446.164062 247.050781 444.039062 C 247.011719 441.328125 248.433594 438.558594 249.691406 436.117188 C 250.160156 435.210938 249.875 434.101562 249.035156 433.527344 C 248.191406 432.953125 247.054688 433.101562 246.382812 433.867188 L 236.597656 445.027344 C 236.488281 442.484375 236.664062 439.941406 237.121094 437.441406 C 238.648438 434.214844 239.824219 430.820312 240.617188 427.320312 C 240.839844 426.332031 240.300781 425.332031 239.347656 424.980469 C 238.402344 424.632812 237.339844 425.039062 236.867188 425.933594 C 235.171875 429.160156 233.964844 432.613281 233.261719 436.167969 C 231.382812 440.023438 228.960938 443.605469 226.054688 446.789062 C 224.726562 448.242188 221.320312 451.507812 218.386719 450.394531 Z M 197.535156 445.050781 C 196.386719 442.519531 196.609375 438.957031 197.347656 436.089844 C 199.53125 427.648438 204.570312 419.992188 211.40625 414.597656 C 210.734375 425.992188 205.582031 436.984375 197.535156 445.050781 Z M 259.050781 408.808594 C 260.246094 406.6875 261.652344 405.1875 263.226562 404.339844 C 264.144531 403.851562 265.148438 403.601562 266.09375 403.601562 C 266.898438 403.601562 267.664062 403.78125 268.300781 404.148438 C 271.695312 406.085938 270.929688 411.976562 270.445312 414.417969 C 268.566406 423.871094 264.730469 432.898438 259.253906 440.816406 C 259.101562 440.121094 258.945312 439.429688 258.789062 438.742188 C 256.152344 427.296875 254.351562 417.144531 259.050781 408.808594 Z M 259.050781 408.808594 " style=" stroke:none;fill-rule:nonzero;fill:rgb(0%,0%,0%);fill-opacity:1;" />
<path d="M 264.601562 255.234375 C 264.523438 255.242188 264.484375 255.238281 264.429688 255.242188 C 264.484375 255.234375 264.542969 255.234375 264.601562 255.234375 Z M 264.601562 255.234375 " style=" stroke:none;fill-rule:nonzero;fill:rgb(0%,0%,0%);fill-opacity:1;" />
</g>
</svg>