<?xml version="1.0" encoding="iso-8859-1"?>
<!-- Generator: Adobe Illustrator 19.0.0, SVG Export Plug-In . SVG Version: 6.00 Build 0)  -->
<svg version="1.1" id="Capa_1" xmlns="http://www.w3.org/2000/svg" xmlns:xlink="http://www.w3.org/1999/xlink" x="0px" y="0px"
	 viewBox="0 0 480 480" style="enable-background:new 0 0 480 480;" xml:space="preserve">
<linearGradient id="SVGID_1_" gradientUnits="userSpaceOnUse" x1="-27.168" y1="557.8651" x2="-27.168" y2="618.3621" gradientTransform="matrix(8 0 0 -8 454.9999 4941.0005)">
	<stop  offset="0" style="stop-color:#006DF0"/>
	<stop  offset="1" style="stop-color:#00E7F0"/>
</linearGradient>
<path style="fill:url(#SVGID_1_);" d="M271.6,195.712L260.288,184.4L232,212.688l-16.976-16.976l-11.312,11.312L232,235.312
	L271.6,195.712z"/>
<g>
	
		<linearGradient id="SVGID_2_" gradientUnits="userSpaceOnUse" x1="-37.875" y1="557.8651" x2="-37.875" y2="618.3621" gradientTransform="matrix(8 0 0 -8 454.9999 4941.0005)">
		<stop  offset="0" style="stop-color:#006DF0"/>
		<stop  offset="1" style="stop-color:#00E7F0"/>
	</linearGradient>
	<path style="fill:url(#SVGID_2_);" d="M136,320h32c4.418,0,8-3.582,8-8s-3.582-8-8-8h-32c-4.418,0-8,3.582-8,8S131.582,320,136,320
		z"/>
	
		<linearGradient id="SVGID_3_" gradientUnits="userSpaceOnUse" x1="-22.875" y1="557.8651" x2="-22.875" y2="618.3621" gradientTransform="matrix(8 0 0 -8 454.9999 4941.0005)">
		<stop  offset="0" style="stop-color:#006DF0"/>
		<stop  offset="1" style="stop-color:#00E7F0"/>
	</linearGradient>
	<path style="fill:url(#SVGID_3_);" d="M192,312c0,4.418,3.582,8,8,8h144c4.418,0,8-3.582,8-8s-3.582-8-8-8H200
		C195.582,304,192,307.582,192,312z"/>
	
		<linearGradient id="SVGID_4_" gradientUnits="userSpaceOnUse" x1="-37.875" y1="557.8651" x2="-37.875" y2="618.3621" gradientTransform="matrix(8 0 0 -8 454.9999 4941.0005)">
		<stop  offset="0" style="stop-color:#006DF0"/>
		<stop  offset="1" style="stop-color:#00E7F0"/>
	</linearGradient>
	<path style="fill:url(#SVGID_4_);" d="M168,336h-32c-4.418,0-8,3.582-8,8s3.582,8,8,8h32c4.418,0,8-3.582,8-8S172.418,336,168,336z
		"/>
	
		<linearGradient id="SVGID_5_" gradientUnits="userSpaceOnUse" x1="-22.875" y1="557.8651" x2="-22.875" y2="618.3621" gradientTransform="matrix(8 0 0 -8 454.9999 4941.0005)">
		<stop  offset="0" style="stop-color:#006DF0"/>
		<stop  offset="1" style="stop-color:#00E7F0"/>
	</linearGradient>
	<path style="fill:url(#SVGID_5_);" d="M344,336H200c-4.418,0-8,3.582-8,8s3.582,8,8,8h144c4.418,0,8-3.582,8-8S348.418,336,344,336
		z"/>
	
		<linearGradient id="SVGID_6_" gradientUnits="userSpaceOnUse" x1="-37.875" y1="557.8651" x2="-37.875" y2="618.3621" gradientTransform="matrix(8 0 0 -8 454.9999 4941.0005)">
		<stop  offset="0" style="stop-color:#006DF0"/>
		<stop  offset="1" style="stop-color:#00E7F0"/>
	</linearGradient>
	<path style="fill:url(#SVGID_6_);" d="M168,368h-32c-4.418,0-8,3.582-8,8s3.582,8,8,8h32c4.418,0,8-3.582,8-8S172.418,368,168,368z
		"/>
	
		<linearGradient id="SVGID_7_" gradientUnits="userSpaceOnUse" x1="-22.875" y1="557.8651" x2="-22.875" y2="618.3621" gradientTransform="matrix(8 0 0 -8 454.9999 4941.0005)">
		<stop  offset="0" style="stop-color:#006DF0"/>
		<stop  offset="1" style="stop-color:#00E7F0"/>
	</linearGradient>
	<path style="fill:url(#SVGID_7_);" d="M344,368H200c-4.418,0-8,3.582-8,8s3.582,8,8,8h144c4.418,0,8-3.582,8-8S348.418,368,344,368
		z"/>
	
		<linearGradient id="SVGID_8_" gradientUnits="userSpaceOnUse" x1="-26.875" y1="557.8651" x2="-26.875" y2="618.3621" gradientTransform="matrix(8 0 0 -8 454.9999 4941.0005)">
		<stop  offset="0" style="stop-color:#006DF0"/>
		<stop  offset="1" style="stop-color:#00E7F0"/>
	</linearGradient>
	<path style="fill:url(#SVGID_8_);" d="M240,272c35.346,0,64-28.654,64-64s-28.654-64-64-64s-64,28.654-64,64
		C176.04,243.33,204.67,271.96,240,272z M240,160c26.51,0,48,21.49,48,48s-21.49,48-48,48s-48-21.49-48-48
		C192.026,181.501,213.501,160.026,240,160z"/>
	
		<linearGradient id="SVGID_9_" gradientUnits="userSpaceOnUse" x1="-26.875" y1="557.8651" x2="-26.875" y2="618.3621" gradientTransform="matrix(8 0 0 -8 454.9999 4941.0005)">
		<stop  offset="0" style="stop-color:#006DF0"/>
		<stop  offset="1" style="stop-color:#00E7F0"/>
	</linearGradient>
	<path style="fill:url(#SVGID_9_);" d="M424,48h-73.472C347.15,38.445,338.134,32.042,328,32h-40.8
		C283.418,13.361,267.019-0.026,248,0h-16c-19.002,0.021-35.375,13.387-39.2,32H152c-10.134,0.042-19.15,6.445-22.528,16H56
		c-4.418,0-8,3.582-8,8v416c0,4.418,3.582,8,8,8h368c4.418,0,8-3.582,8-8V56C432,51.582,428.418,48,424,48z M136,112h208
		c4.418,0,8-3.582,8-8v-8h32v336H96V96h32v8C128,108.418,131.582,112,136,112z M152,48h48c4.418,0,8-3.582,8-8
		c0-13.255,10.745-24,24-24h16c13.228-0.027,23.973,10.676,24,23.904c0,0.032,0,0.064,0,0.096c0,4.418,3.582,8,8,8h48
		c4.418,0,8,3.582,8,8v40H144V56C144,51.582,147.582,48,152,48z M416,464H64V64h64v16H88c-4.418,0-8,3.582-8,8v352
		c0,4.418,3.582,8,8,8h304c4.418,0,8-3.582,8-8V88c0-4.418-3.582-8-8-8h-40V64h64V464z"/>
	
		<linearGradient id="SVGID_10_" gradientUnits="userSpaceOnUse" x1="-26.875" y1="557.8651" x2="-26.875" y2="618.3621" gradientTransform="matrix(8 0 0 -8 454.9999 4941.0005)">
		<stop  offset="0" style="stop-color:#006DF0"/>
		<stop  offset="1" style="stop-color:#00E7F0"/>
	</linearGradient>
	<path style="fill:url(#SVGID_10_);" d="M240,88c13.255,0,24-10.745,24-24s-10.745-24-24-24c-13.255,0-24,10.745-24,24
		S226.745,88,240,88z M240,56c4.418,0,8,3.582,8,8s-3.582,8-8,8s-8-3.582-8-8S235.582,56,240,56z"/>
</g>
<g>
</g>
<g>
</g>
<g>
</g>
<g>
</g>
<g>
</g>
<g>
</g>
<g>
</g>
<g>
</g>
<g>
</g>
<g>
</g>
<g>
</g>
<g>
</g>
<g>
</g>
<g>
</g>
<g>
</g>
</svg>
