<?xml version="1.0" encoding="iso-8859-1"?>
<!-- Generator: Adobe Illustrator 19.0.0, SVG Export Plug-In . SVG Version: 6.00 Build 0)  -->
<svg version="1.1" id="Capa_1" xmlns="http://www.w3.org/2000/svg" xmlns:xlink="http://www.w3.org/1999/xlink" x="0px" y="0px"
	 viewBox="0 0 512 512" style="enable-background:new 0 0 512 512;" xml:space="preserve">
<g>
	
		<linearGradient id="SVGID_1_" gradientUnits="userSpaceOnUse" x1="-12.7578" y1="639.7109" x2="-12.7578" y2="575.5809" gradientTransform="matrix(8.5333 0 0 -8.5333 369.1334 5433.2671)">
		<stop  offset="0" style="stop-color:#FC5C7D"/>
		<stop  offset="0.129" style="stop-color:#F35E85"/>
		<stop  offset="0.343" style="stop-color:#D9659B"/>
		<stop  offset="0.616" style="stop-color:#B070BF"/>
		<stop  offset="0.934" style="stop-color:#777FF0"/>
		<stop  offset="1" style="stop-color:#6A82FB"/>
	</linearGradient>
	<rect x="251.733" y="426.667" style="fill:url(#SVGID_1_);" width="17.067" height="17.067"/>
	
		<linearGradient id="SVGID_2_" gradientUnits="userSpaceOnUse" x1="-13.7578" y1="639.7109" x2="-13.7578" y2="575.5809" gradientTransform="matrix(8.5333 0 0 -8.5333 369.1334 5433.2671)">
		<stop  offset="0" style="stop-color:#FC5C7D"/>
		<stop  offset="0.129" style="stop-color:#F35E85"/>
		<stop  offset="0.343" style="stop-color:#D9659B"/>
		<stop  offset="0.616" style="stop-color:#B070BF"/>
		<stop  offset="0.934" style="stop-color:#777FF0"/>
		<stop  offset="1" style="stop-color:#6A82FB"/>
	</linearGradient>
	<path style="fill:url(#SVGID_2_);" d="M46.933,366.933v76.8H29.867c-4.71,0-8.533,3.823-8.533,8.533v25.6
		c0,18.85,15.283,34.133,34.133,34.133h409.6c18.85,0,34.133-15.283,34.133-34.133v-25.6c0-4.71-3.823-8.533-8.533-8.533H473.6
		v-307.2c0-18.85-15.283-34.133-34.133-34.133h-76.8V68.267c0-18.85-15.283-34.133-34.133-34.133H81.067
		c-18.85,0-34.133,15.283-34.133,34.133V307.2H12.8c-4.71,0-8.533,3.823-8.533,8.533V332.8c0,18.85,15.283,34.133,34.133,34.133
		H46.933z M482.133,477.867c0,9.429-7.637,17.067-17.067,17.067h-409.6c-9.429,0-17.067-7.637-17.067-17.067V460.8h141.534
		l14.566,14.566c1.596,1.604,3.772,2.5,6.033,2.5H320c2.261,0,4.437-0.896,6.033-2.5l14.566-14.566h141.534V477.867z
		 M439.467,119.467c9.429,0,17.067,7.637,17.067,17.067v307.2H337.067c-2.261,0-4.437,0.896-6.033,2.5L316.467,460.8H204.066
		L189.5,446.234c-1.596-1.604-3.772-2.5-6.033-2.5H64v-76.8h25.6v34.133c0,4.71,3.823,8.533,8.533,8.533H422.4
		c4.71,0,8.533-3.823,8.533-8.533V153.6c0-4.71-3.823-8.533-8.533-8.533h-59.733v-25.6H439.467z M311.467,332.8v-128h76.8v-17.067
		h-25.6v-25.6h51.2v230.4h-307.2v-25.6h170.667C296.183,366.933,311.467,351.65,311.467,332.8z M345.6,68.267v119.467h-34.133
		V68.267c0-9.429,7.637-17.067,17.067-17.067S345.6,58.837,345.6,68.267z M64,68.267C64,58.837,71.637,51.2,81.067,51.2h218.078
		c-3.072,5.163-4.71,11.059-4.745,17.067V332.8c0,9.429-7.637,17.067-17.067,17.067s-17.067-7.637-17.067-17.067v-17.067
		c0-4.71-3.823-8.533-8.533-8.533H64V68.267z M21.333,332.8v-8.533H243.2v8.533c-0.009,5.99,1.57,11.887,4.582,17.067H38.4
		C28.971,349.867,21.333,342.229,21.333,332.8z"/>
	
		<linearGradient id="SVGID_3_" gradientUnits="userSpaceOnUse" x1="-29.7578" y1="639.7109" x2="-29.7578" y2="575.5809" gradientTransform="matrix(8.5333 0 0 -8.5333 369.1334 5433.2671)">
		<stop  offset="0" style="stop-color:#FC5C7D"/>
		<stop  offset="0.129" style="stop-color:#F35E85"/>
		<stop  offset="0.343" style="stop-color:#D9659B"/>
		<stop  offset="0.616" style="stop-color:#B070BF"/>
		<stop  offset="0.934" style="stop-color:#777FF0"/>
		<stop  offset="1" style="stop-color:#6A82FB"/>
	</linearGradient>
	<polygon style="fill:url(#SVGID_3_);" points="106.667,128 123.733,128 123.733,110.933 140.8,110.933 140.8,93.867 
		123.733,93.867 123.733,76.8 106.667,76.8 106.667,93.867 89.6,93.867 89.6,110.933 106.667,110.933 	"/>
	
		<linearGradient id="SVGID_4_" gradientUnits="userSpaceOnUse" x1="-12.7578" y1="639.7109" x2="-12.7578" y2="575.5809" gradientTransform="matrix(8.5333 0 0 -8.5333 369.1334 5433.2671)">
		<stop  offset="0" style="stop-color:#FC5C7D"/>
		<stop  offset="0.129" style="stop-color:#F35E85"/>
		<stop  offset="0.343" style="stop-color:#D9659B"/>
		<stop  offset="0.616" style="stop-color:#B070BF"/>
		<stop  offset="0.934" style="stop-color:#777FF0"/>
		<stop  offset="1" style="stop-color:#6A82FB"/>
	</linearGradient>
	<rect x="251.733" y="76.8" style="fill:url(#SVGID_4_);" width="17.067" height="17.067"/>
	
		<linearGradient id="SVGID_5_" gradientUnits="userSpaceOnUse" x1="-12.7578" y1="639.7109" x2="-12.7578" y2="575.5809" gradientTransform="matrix(8.5333 0 0 -8.5333 369.1334 5433.2671)">
		<stop  offset="0" style="stop-color:#FC5C7D"/>
		<stop  offset="0.129" style="stop-color:#F35E85"/>
		<stop  offset="0.343" style="stop-color:#D9659B"/>
		<stop  offset="0.616" style="stop-color:#B070BF"/>
		<stop  offset="0.934" style="stop-color:#777FF0"/>
		<stop  offset="1" style="stop-color:#6A82FB"/>
	</linearGradient>
	<rect x="251.733" y="110.933" style="fill:url(#SVGID_5_);" width="17.067" height="17.067"/>
	
		<linearGradient id="SVGID_6_" gradientUnits="userSpaceOnUse" x1="-29.7578" y1="639.7109" x2="-29.7578" y2="575.5809" gradientTransform="matrix(8.5333 0 0 -8.5333 369.1334 5433.2671)">
		<stop  offset="0" style="stop-color:#FC5C7D"/>
		<stop  offset="0.129" style="stop-color:#F35E85"/>
		<stop  offset="0.343" style="stop-color:#D9659B"/>
		<stop  offset="0.616" style="stop-color:#B070BF"/>
		<stop  offset="0.934" style="stop-color:#777FF0"/>
		<stop  offset="1" style="stop-color:#6A82FB"/>
	</linearGradient>
	<rect x="106.667" y="153.6" style="fill:url(#SVGID_6_);" width="17.067" height="17.067"/>
	
		<linearGradient id="SVGID_7_" gradientUnits="userSpaceOnUse" x1="-19.2578" y1="639.7109" x2="-19.2578" y2="575.5809" gradientTransform="matrix(8.5333 0 0 -8.5333 369.1334 5433.2671)">
		<stop  offset="0" style="stop-color:#FC5C7D"/>
		<stop  offset="0.129" style="stop-color:#F35E85"/>
		<stop  offset="0.343" style="stop-color:#D9659B"/>
		<stop  offset="0.616" style="stop-color:#B070BF"/>
		<stop  offset="0.934" style="stop-color:#777FF0"/>
		<stop  offset="1" style="stop-color:#6A82FB"/>
	</linearGradient>
	<rect x="140.8" y="153.6" style="fill:url(#SVGID_7_);" width="128" height="17.067"/>
	
		<linearGradient id="SVGID_8_" gradientUnits="userSpaceOnUse" x1="-22.2578" y1="639.7109" x2="-22.2578" y2="575.5809" gradientTransform="matrix(8.5333 0 0 -8.5333 369.1334 5433.2671)">
		<stop  offset="0" style="stop-color:#FC5C7D"/>
		<stop  offset="0.129" style="stop-color:#F35E85"/>
		<stop  offset="0.343" style="stop-color:#D9659B"/>
		<stop  offset="0.616" style="stop-color:#B070BF"/>
		<stop  offset="0.934" style="stop-color:#777FF0"/>
		<stop  offset="1" style="stop-color:#6A82FB"/>
	</linearGradient>
	<rect x="89.6" y="187.733" style="fill:url(#SVGID_8_);" width="179.2" height="17.067"/>
	
		<linearGradient id="SVGID_9_" gradientUnits="userSpaceOnUse" x1="-22.2578" y1="639.7109" x2="-22.2578" y2="575.5809" gradientTransform="matrix(8.5333 0 0 -8.5333 369.1334 5433.2671)">
		<stop  offset="0" style="stop-color:#FC5C7D"/>
		<stop  offset="0.129" style="stop-color:#F35E85"/>
		<stop  offset="0.343" style="stop-color:#D9659B"/>
		<stop  offset="0.616" style="stop-color:#B070BF"/>
		<stop  offset="0.934" style="stop-color:#777FF0"/>
		<stop  offset="1" style="stop-color:#6A82FB"/>
	</linearGradient>
	<rect x="89.6" y="221.867" style="fill:url(#SVGID_9_);" width="179.2" height="17.067"/>
	
		<linearGradient id="SVGID_10_" gradientUnits="userSpaceOnUse" x1="-24.2578" y1="639.7109" x2="-24.2578" y2="575.5809" gradientTransform="matrix(8.5333 0 0 -8.5333 369.1334 5433.2671)">
		<stop  offset="0" style="stop-color:#FC5C7D"/>
		<stop  offset="0.129" style="stop-color:#F35E85"/>
		<stop  offset="0.343" style="stop-color:#D9659B"/>
		<stop  offset="0.616" style="stop-color:#B070BF"/>
		<stop  offset="0.934" style="stop-color:#777FF0"/>
		<stop  offset="1" style="stop-color:#6A82FB"/>
	</linearGradient>
	<rect x="89.6" y="256" style="fill:url(#SVGID_10_);" width="145.067" height="17.067"/>
	
		<linearGradient id="SVGID_11_" gradientUnits="userSpaceOnUse" x1="15.2422" y1="639.7109" x2="15.2422" y2="575.5809" gradientTransform="matrix(8.5333 0 0 -8.5333 369.1334 5433.2671)">
		<stop  offset="0" style="stop-color:#FC5C7D"/>
		<stop  offset="0.129" style="stop-color:#F35E85"/>
		<stop  offset="0.343" style="stop-color:#D9659B"/>
		<stop  offset="0.616" style="stop-color:#B070BF"/>
		<stop  offset="0.934" style="stop-color:#777FF0"/>
		<stop  offset="1" style="stop-color:#6A82FB"/>
	</linearGradient>
	<rect x="490.667" y="230.4" style="fill:url(#SVGID_11_);" width="17.067" height="162.133"/>
	
		<linearGradient id="SVGID_12_" gradientUnits="userSpaceOnUse" x1="15.2422" y1="639.7109" x2="15.2422" y2="575.5809" gradientTransform="matrix(8.5333 0 0 -8.5333 369.1334 5433.2671)">
		<stop  offset="0" style="stop-color:#FC5C7D"/>
		<stop  offset="0.129" style="stop-color:#F35E85"/>
		<stop  offset="0.343" style="stop-color:#D9659B"/>
		<stop  offset="0.616" style="stop-color:#B070BF"/>
		<stop  offset="0.934" style="stop-color:#777FF0"/>
		<stop  offset="1" style="stop-color:#6A82FB"/>
	</linearGradient>
	<rect x="490.667" y="196.267" style="fill:url(#SVGID_12_);" width="17.067" height="17.067"/>
	
		<linearGradient id="SVGID_13_" gradientUnits="userSpaceOnUse" x1="-37.7578" y1="639.7109" x2="-37.7578" y2="575.5809" gradientTransform="matrix(8.5333 0 0 -8.5333 369.1334 5433.2671)">
		<stop  offset="0" style="stop-color:#FC5C7D"/>
		<stop  offset="0.129" style="stop-color:#F35E85"/>
		<stop  offset="0.343" style="stop-color:#D9659B"/>
		<stop  offset="0.616" style="stop-color:#B070BF"/>
		<stop  offset="0.934" style="stop-color:#777FF0"/>
		<stop  offset="1" style="stop-color:#6A82FB"/>
	</linearGradient>
	<path style="fill:url(#SVGID_13_);" d="M12.8,187.733h17.067v-128c0.026-23.552,19.115-42.641,42.667-42.667h8.533V0h-8.533
		C39.561,0.034,12.834,26.761,12.8,59.733V187.733z"/>
	
		<linearGradient id="SVGID_14_" gradientUnits="userSpaceOnUse" x1="-40.7578" y1="639.7109" x2="-40.7578" y2="575.5809" gradientTransform="matrix(8.5333 0 0 -8.5333 369.1334 5433.2671)">
		<stop  offset="0" style="stop-color:#FC5C7D"/>
		<stop  offset="0.129" style="stop-color:#F35E85"/>
		<stop  offset="0.343" style="stop-color:#D9659B"/>
		<stop  offset="0.616" style="stop-color:#B070BF"/>
		<stop  offset="0.934" style="stop-color:#777FF0"/>
		<stop  offset="1" style="stop-color:#6A82FB"/>
	</linearGradient>
	<rect x="12.8" y="204.8" style="fill:url(#SVGID_14_);" width="17.067" height="17.067"/>
</g>
<g>
</g>
<g>
</g>
<g>
</g>
<g>
</g>
<g>
</g>
<g>
</g>
<g>
</g>
<g>
</g>
<g>
</g>
<g>
</g>
<g>
</g>
<g>
</g>
<g>
</g>
<g>
</g>
<g>
</g>
</svg>
