<svg height="512pt" viewBox="-32 0 512 512.00105" width="512pt" xmlns="http://www.w3.org/2000/svg"><path d="m429.351562 2.78125-64.886718-2.7617188c-10.320313-.4687502-19.050782 7.5742188-19.488282 17.8984378-.441406 10.320312 7.570313 19.046875 17.894532 19.488281l20.296875.863281-72.339844 67.566407c-23.796875-19.417969-54.15625-31.085938-87.195313-31.085938-33.035156 0-63.398437 11.667969-87.195312 31.085938l-17.585938-16.425782 13.265626-14.546875c6.960937-7.632812 6.414062-19.46875-1.21875-26.429687-7.636719-6.960938-19.46875-6.417969-26.433594 1.21875l-12.960938 14.210937-27.402344-25.59375 20.292969-.863281c10.324219-.441406 18.335938-9.167969 17.898438-19.488281-.441407-10.328125-9.148438-18.363281-19.488281-17.8984378l-64.890626 2.7617188c-10.199218.4375-18.167968 8.96875-17.9062495 19.171875l1.6640625 64.929687c.261719 10.164063 8.582031 18.230469 18.695313 18.230469.160156 0 .324218-.003906.488281-.007812 10.332031-.265625 18.488281-8.851563 18.222656-19.183594l-.519531-20.304687 27.730468 25.902343-10.984374 12.042969c-6.960938 7.632812-6.414063 19.46875 1.21875 26.429688 3.585937 3.273437 8.101562 4.886718 12.601562 4.886718 5.078125 0 10.140625-2.054687 13.832031-6.105468l10.679688-11.710938 17.25 16.109375c-15.980469 22.535156-25.382813 50.042969-25.382813 79.710937 0 69.816407 52.074219 127.695313 119.417969 136.855469v77.765625h-20.519531c-10.332032 0-18.710938 8.375-18.710938 18.710938 0 10.332031 8.378906 18.710937 18.710938 18.710937h20.519531v28.367188c0 10.332031 8.378906 18.707031 18.710937 18.707031 10.335938 0 18.710938-8.375 18.710938-18.707031v-28.367188h20.519531c10.335938 0 18.710938-8.378906 18.710938-18.710937 0-10.335938-8.375-18.710938-18.710938-18.710938h-20.519531v-77.765625c67.347656-9.160156 119.417969-67.039062 119.417969-136.855469 0-29.667968-9.402344-57.175781-25.378907-79.710937l72.324219-67.554687-.519531 20.308593c-.265625 10.328125 7.894531 18.917969 18.222656 19.179688.164063.003906.328125.007812.492188.007812 10.109375 0 18.433594-8.066406 18.695312-18.230469l1.664063-64.925781c.261719-10.207031-7.707031-18.738281-17.910157-19.175781zm-205.71875 310.808594c-55.53125 0-100.707031-45.179688-100.707031-100.710938s45.175781-100.707031 100.707031-100.707031 100.710938 45.175781 100.710938 100.710937c0 55.53125-45.179688 100.707032-100.710938 100.707032zm0 0" fill="#00f3a7"/><g fill="#00e49d"><path d="m222.785156 74.761719c24.90625 3.121093 57.257813 19.886719 77.316406 35.234375 2.003907 1.535156 4.832032 1.371094 6.675782-.351563l4.066406-3.796875c0-.007812 0-.015625-.003906-.023437l-.011719.011719c-24-19.585938-54.675781-31.28125-88.042969-31.082032-.003906.027344.003906-.019531 0 .007813zm0 0"/><path d="m112.507812 47.292969c7.65625 6.980469 8.203126 18.84375 1.222657 26.496093l-9.835938 10.785157c-1.917969 2.105469-1.785156 5.359375.292969 7.300781l19.375 18.097656c1.855469 1.730469 4.683594 1.867188 6.695312.328125 2.019532-1.542969 4.082032-3.03125 6.183594-4.464843l-17.589844-16.425782 13.265626-14.546875c6.960937-7.632812 6.414062-19.46875-1.21875-26.429687-5.832032-5.320313-14.113282-6.242188-20.804688-2.980469.839844.542969 1.652344 1.144531 2.414062 1.839844zm0 0"/><path d="m82.957031 128.773438 10.679688-11.714844-6.613281-6.175782c-2.117188-1.976562-5.441407-1.84375-7.390626.296876l-15.183593 16.652343c-1.582031 1.734375-3.425781 3.082031-5.402344 4.082031 3.074219 1.972657 6.578125 2.964844 10.078125 2.964844 5.078125 0 10.140625-2.058594 13.832031-6.105468zm0 0"/><path d="m122.925781 212.878906c0-54.324218 43.238281-98.734375 97.109375-100.636718-4.753906-.691407-9.617187-1.054688-14.5625-1.054688-55.667968 0-100.957031 45.289062-100.957031 100.957031s45.289063 100.957031 100.957031 100.957031c2.136719 0 4.257813-.078124 6.363282-.207031-49.988282-5.859375-88.910157-48.472656-88.910157-100.015625zm0 0"/><path d="m408.707031 65.613281v-6.058593c0-4.550782-5.4375-6.902344-8.753906-3.789063l-78.207031 73.429687c-1.847656 1.734376-2.171875 4.539063-.769532 6.652344 14.507813 21.890625 22.96875 48.125 22.96875 76.296875 0 68.488281-49.988281 125.515625-115.394531 136.535157-2.496093.421874-4.320312 2.582031-4.320312 5.113281v68.304687c0 2.871094 2.328125 5.199219 5.195312 5.199219h12.917969v-77.558594c56.671875-7.710937 102.527344-49.914062 115.640625-104.703125 1.207031-5.046875 2.136719-10.195312 2.773437-15.4375.664063-5.480468 1.003907-11.058594 1.003907-16.714844 0-29.667968-9.402344-57.175781-25.378907-79.710937zm0 0"/><path d="m429.351562 2.78125-13.4375-.570312c8.113282 2.246093 13.960938 9.769531 13.738282 18.539062l-1.671875 65.085938c-.1875 7.359374-4.601563 13.601562-10.847657 16.511718 2.710938 1.664063 5.871094 2.671875 9.28125 2.757813.164063.003906.324219.007812.488282.007812 10.109375 0 18.433594-8.066406 18.695312-18.230469l1.664063-64.929687c.261719-10.203125-7.707031-18.734375-17.910157-19.171875zm0 0"/><path d="m39.078125 85.921875-.519531-20.328125-9.984375-9.324219c-3.367188-3.148437-8.859375-.675781-8.742188 3.929688l.632813 24.675781c.191406 7.480469-4.035156 14.03125-10.296875 17.203125 2.941406 1.917969 6.445312 3.03125 10.199219 3.03125.160156 0 .324218 0 .488281-.003906 10.328125-.265625 18.488281-8.851563 18.222656-19.183594zm0 0"/><path d="m229.425781 464.921875c-2.871093 0-5.195312 2.324219-5.195312 5.195313v23.125c0 7.0625-3.90625 13.203124-9.671875 16.40625 2.84375 1.582031 6.136718 2.449218 9.648437 2.34375 10.195313-.304688 18.136719-9.035157 18.136719-19.238282v-27.828125l.003906-.003906zm0 0"/><path d="m262.417969 427.503906h-14.972657c9.3125 1.316406 16.433594 9.449219 16.101563 19.203125-.347656 10.1875-9.066406 18.214844-19.261719 18.214844l.003906.003906h18.574219c10.558594 0 19.078125-8.75 18.699219-19.394531-.359375-10.136719-9-18.027344-19.144531-18.027344zm0 0"/><path d="m55.222656 47.601562 24.496094 21.621094c2.128906 1.878906 5.367188 1.703125 7.28125-.394531l4.515625-4.949219-27.410156-25.605468-5.664063.238281c-4.675781.199219-6.726562 5.992187-3.21875 9.089843zm0 0"/><path d="m64.101562 38.269531.003907.003907h.003906zm0 0"/><path d="m65.890625 38.195312c.019531 0 .039063-.003906.054687-.003906h-.054687zm0 0"/><path d="m82.804688.0195312-9.914063.4218748c6.207031 2.839844 10.632813 10.929688 10.941406 18.21875.441407 10.328125-7.5625 19.0625-17.886719 19.53125l18.449219-.785156c10.324219-.441406 18.335938-9.167969 17.894531-19.488281-.4375-10.324219-9.144531-18.359375-19.484374-17.8984378zm0 0"/></g></svg>